<svg style="position: absolute; width: 0; height: 0; overflow: hidden;" version="1.1" xmlns="http://www.w3.org/2000/svg">
	<defs>
		<symbol id="icon-id-card" viewBox="0 0 32 32">
			<title>id-card</title>
			<path d="M14 5.063q0 0.844-0.117 1.57t-0.383 1.406-0.797 1.070-1.266 0.391q-1-1-2.438-1t-2.438 1q-0.734 0-1.266-0.391t-0.797-1.070-0.383-1.406-0.117-1.57q0-0.859 0.492-1.461t1.18-0.602h6.656q0.688 0 1.18 0.602t0.492 1.461zM12 12q0 1.25-0.875 2.125t-2.125 0.875-2.125-0.875-0.875-2.125 0.875-2.125 2.125-0.875 2.125 0.875 0.875 2.125zM28 4.5v1q0 0.219-0.141 0.359t-0.359 0.141h-11q-0.219 0-0.359-0.141t-0.141-0.359v-1q0-0.219 0.141-0.359t0.359-0.141h11q0.219 0 0.359 0.141t0.141 0.359zM22 8.5v1q0 0.219-0.141 0.359t-0.359 0.141h-5q-0.219 0-0.359-0.141t-0.141-0.359v-1q0-0.219 0.141-0.359t0.359-0.141h5q0.219 0 0.359 0.141t0.141 0.359zM28 8.5v1q0 0.219-0.141 0.359t-0.359 0.141h-3q-0.219 0-0.359-0.141t-0.141-0.359v-1q0-0.219 0.141-0.359t0.359-0.141h3q0.219 0 0.359 0.141t0.141 0.359zM28 12.5v1q0 0.219-0.141 0.359t-0.359 0.141h-11q-0.219 0-0.359-0.141t-0.141-0.359v-1q0-0.219 0.141-0.359t0.359-0.141h11q0.219 0 0.359 0.141t0.141 0.359zM2 18h28v1.5q0 0.219-0.141 0.359t-0.359 0.141h-27q-0.219 0-0.359-0.141t-0.141-0.359v-1.5zM32 19.5v-19q0-1.031-0.734-1.766t-1.766-0.734h-27q-1.031 0-1.766 0.734t-0.734 1.766v19q0 1.031 0.734 1.766t1.766 0.734h27q1.031 0 1.766-0.734t0.734-1.766z"></path>
		</symbol>
		<symbol id="icon-linkedin" viewBox="0 0 32 32">
			<title>linkedin</title>
			<path d="M8.518 11.161v17.696h-5.893v-17.696h5.893zM8.893 5.696q0.018 1.304-0.902 2.179t-2.42 0.875h-0.036q-1.464 0-2.357-0.875t-0.893-2.179q0-1.321 0.92-2.188t2.402-0.866 2.375 0.866 0.911 2.188zM29.714 18.714v10.143h-5.875v-9.464q0-1.875-0.723-2.938t-2.259-1.063q-1.125 0-1.884 0.616t-1.134 1.527q-0.196 0.536-0.196 1.446v9.875h-5.875q0.036-7.125 0.036-11.554t-0.018-5.286l-0.018-0.857h5.875v2.571h-0.036q0.357-0.571 0.732-1t1.009-0.929 1.554-0.777 2.045-0.277q3.054 0 4.911 2.027t1.857 5.938z"></path>
		</symbol>
		<symbol id="icon-male" viewBox="0 0 32 32">
			<title>male</title>
			<path d="M25.143 12.571v7.429q0 0.714-0.5 1.214t-1.214 0.5-1.214-0.5-0.5-1.214v-6.286h-1.143v16.286q0 0.821-0.589 1.411t-1.411 0.589-1.411-0.589-0.589-1.411v-8.286h-1.143v8.286q0 0.821-0.589 1.411t-1.411 0.589-1.411-0.589-0.589-1.411v-16.286h-1.143v6.286q0 0.714-0.5 1.214t-1.214 0.5-1.214-0.5-0.5-1.214v-7.429q0-1.429 1-2.429t2.429-1h11.429q1.429 0 2.429 1t1 2.429zM20 4.571q0 1.661-1.17 2.83t-2.83 1.17-2.83-1.17-1.17-2.83 1.17-2.83 2.83-1.17 2.83 1.17 1.17 2.83z"></path>
		</symbol>
		<symbol id="icon-map-marker" viewBox="0 0 32 32">
			<title>map-marker</title>
			<path d="M20.571 11.429q0-1.893-1.339-3.232t-3.232-1.339-3.232 1.339-1.339 3.232 1.339 3.232 3.232 1.339 3.232-1.339 1.339-3.232zM25.143 11.429q0 1.946-0.589 3.196l-6.5 13.821q-0.286 0.589-0.848 0.929t-1.205 0.339-1.205-0.339-0.83-0.929l-6.518-13.821q-0.589-1.25-0.589-3.196 0-3.786 2.679-6.464t6.464-2.679 6.464 2.679 2.679 6.464z"></path>
		</symbol>
		<symbol id="icon-mobile" viewBox="0 0 32 32">
			<title>mobile</title>
			<path d="M17.429 25.143q0-0.589-0.42-1.009t-1.009-0.42-1.009 0.42-0.42 1.009 0.42 1.009 1.009 0.42 1.009-0.42 0.42-1.009zM21.143 22.286v-12.571q0-0.232-0.17-0.402t-0.402-0.17h-9.143q-0.232 0-0.402 0.17t-0.17 0.402v12.571q0 0.232 0.17 0.402t0.402 0.17h9.143q0.232 0 0.402-0.17t0.17-0.402zM17.714 7.143q0-0.286-0.286-0.286h-2.857q-0.286 0-0.286 0.286t0.286 0.286h2.857q0.286 0 0.286-0.286zM22.857 6.857v18.286q0 0.929-0.679 1.607t-1.607 0.679h-9.143q-0.929 0-1.607-0.679t-0.679-1.607v-18.286q0-0.929 0.679-1.607t1.607-0.679h9.143q0.929 0 1.607 0.679t0.679 1.607z"></path>
		</symbol>
		<symbol id="icon-pie-chart" viewBox="0 0 32 32">
			<title>pie-chart</title>
			<path d="M13.714 15.893l9.75 9.75q-1.893 1.929-4.42 3t-5.33 1.071q-3.732 0-6.884-1.839t-4.991-4.991-1.839-6.884 1.839-6.884 4.991-4.991 6.884-1.839v13.607zM17.054 16h13.804q0 2.804-1.071 5.33t-3 4.42zM29.714 13.714h-13.714v-13.714q3.732 0 6.884 1.839t4.991 4.991 1.839 6.884z"></path>
		</symbol>
		<symbol id="icon-refresh" viewBox="0 0 32 32">
			<title>refresh</title>
			<path d="M29.268 18.857q0 0.089-0.018 0.125-1.143 4.786-4.786 7.759t-8.536 2.973q-2.607 0-5.045-0.982t-4.348-2.804l-2.304 2.304q-0.339 0.339-0.804 0.339t-0.804-0.339-0.339-0.804v-8q0-0.464 0.339-0.804t0.804-0.339h8q0.464 0 0.804 0.339t0.339 0.804-0.339 0.804l-2.446 2.446q1.268 1.179 2.875 1.821t3.339 0.643q2.393 0 4.464-1.161t3.321-3.196q0.196-0.304 0.946-2.089 0.143-0.411 0.536-0.411h3.429q0.232 0 0.402 0.17t0.17 0.402zM29.714 4.571v8q0 0.464-0.339 0.804t-0.804 0.339h-8q-0.464 0-0.804-0.339t-0.339-0.804 0.339-0.804l2.464-2.464q-2.643-2.446-6.232-2.446-2.393 0-4.464 1.161t-3.321 3.196q-0.196 0.304-0.946 2.089-0.143 0.411-0.536 0.411h-3.554q-0.232 0-0.402-0.17t-0.17-0.402v-0.125q1.161-4.786 4.821-7.759t8.571-2.973q2.607 0 5.071 0.991t4.375 2.795l2.321-2.304q0.339-0.339 0.804-0.339t0.804 0.339 0.339 0.804z"></path>
		</symbol>
		<symbol id="icon-server" viewBox="0 0 32 32">
			<title>server</title>
			<path d="M2.286 25.143h18.286v-2.286h-18.286v2.286zM2.286 16h18.286v-2.286h-18.286v2.286zM30.286 24q0-0.714-0.5-1.214t-1.214-0.5-1.214 0.5-0.5 1.214 0.5 1.214 1.214 0.5 1.214-0.5 0.5-1.214zM2.286 6.857h18.286v-2.286h-18.286v2.286zM30.286 14.857q0-0.714-0.5-1.214t-1.214-0.5-1.214 0.5-0.5 1.214 0.5 1.214 1.214 0.5 1.214-0.5 0.5-1.214zM30.286 5.714q0-0.714-0.5-1.214t-1.214-0.5-1.214 0.5-0.5 1.214 0.5 1.214 1.214 0.5 1.214-0.5 0.5-1.214zM32 20.571v6.857h-32v-6.857h32zM32 11.429v6.857h-32v-6.857h32zM32 2.286v6.857h-32v-6.857h32z"></path>
		</symbol>
		<symbol id="icon-smile-o" viewBox="0 0 32 32">
			<title>smile-o</title>
			<path d="M22.536 19.196q-0.661 2.161-2.464 3.482t-4.071 1.321-4.071-1.321-2.464-3.482q-0.143-0.446 0.071-0.866t0.679-0.563q0.446-0.143 0.866 0.071t0.563 0.679q0.446 1.429 1.652 2.313t2.705 0.884 2.705-0.884 1.652-2.313q0.143-0.464 0.571-0.679t0.875-0.071 0.661 0.563 0.071 0.866zM13.714 11.429q0 0.946-0.67 1.616t-1.616 0.67-1.616-0.67-0.67-1.616 0.67-1.616 1.616-0.67 1.616 0.67 0.67 1.616zM22.857 11.429q0 0.946-0.67 1.616t-1.616 0.67-1.616-0.67-0.67-1.616 0.67-1.616 1.616-0.67 1.616 0.67 0.67 1.616zM27.429 16q0-2.321-0.911-4.438t-2.438-3.643-3.643-2.438-4.438-0.911-4.438 0.911-3.643 2.438-2.438 3.643-0.911 4.438 0.911 4.438 2.438 3.643 3.643 2.438 4.438 0.911 4.438-0.911 3.643-2.438 2.438-3.643 0.911-4.438zM29.714 16q0 3.732-1.839 6.884t-4.991 4.991-6.884 1.839-6.884-1.839-4.991-4.991-1.839-6.884 1.839-6.884 4.991-4.991 6.884-1.839 6.884 1.839 4.991 4.991 1.839 6.884z"></path>
		</symbol>
		<symbol id="icon-times" viewBox="0 0 32 32">
			<title>times</title>
			<path d="M26.607 23.607q0 0.714-0.5 1.214l-2.429 2.429q-0.5 0.5-1.214 0.5t-1.214-0.5l-5.25-5.25-5.25 5.25q-0.5 0.5-1.214 0.5t-1.214-0.5l-2.429-2.429q-0.5-0.5-0.5-1.214t0.5-1.214l5.25-5.25-5.25-5.25q-0.5-0.5-0.5-1.214t0.5-1.214l2.429-2.429q0.5-0.5 1.214-0.5t1.214 0.5l5.25 5.25 5.25-5.25q0.5-0.5 1.214-0.5t1.214 0.5l2.429 2.429q0.5 0.5 0.5 1.214t-0.5 1.214l-5.25 5.25 5.25 5.25q0.5 0.5 0.5 1.214z"></path>
		</symbol>
		<symbol id="icon-trophy" viewBox="0 0 32 32">
			<title>trophy</title>
			<path d="M9.321 15.768q-1.321-2.893-1.321-6.625h-4.571v1.714q0 1.393 1.688 2.893t4.205 2.018zM28.571 10.857v-1.714h-4.571q0 3.732-1.321 6.625 2.518-0.518 4.205-2.018t1.688-2.893zM30.857 8.571v2.286q0 1.268-0.741 2.554t-2 2.321-3.089 1.741-3.848 0.795q-0.75 0.964-1.696 1.696-0.679 0.607-0.938 1.295t-0.259 1.598q0 0.964 0.545 1.625t1.741 0.661q1.339 0 2.384 0.813t1.045 2.045v1.143q0 0.25-0.161 0.411t-0.411 0.161h-14.857q-0.25 0-0.411-0.161t-0.161-0.411v-1.143q0-1.232 1.045-2.045t2.384-0.813q1.196 0 1.741-0.661t0.545-1.625q0-0.911-0.259-1.598t-0.938-1.295q-0.946-0.732-1.696-1.696-2.018-0.089-3.848-0.795t-3.089-1.741-2-2.321-0.741-2.554v-2.286q0-0.714 0.5-1.214t1.214-0.5h5.143v-1.714q0-1.179 0.839-2.018t2.018-0.839h10.286q1.179 0 2.018 0.839t0.839 2.018v1.714h5.143q0.714 0 1.214 0.5t0.5 1.214z"></path>
		</symbol>
		<symbol id="icon-twitter" viewBox="0 0 32 32">
			<title>twitter</title>
			<path d="M30.071 7.286q-1.196 1.75-2.893 2.982 0.018 0.25 0.018 0.75 0 2.321-0.679 4.634t-2.063 4.437-3.295 3.759-4.607 2.607-5.768 0.973q-4.839 0-8.857-2.589 0.625 0.071 1.393 0.071 4.018 0 7.161-2.464-1.875-0.036-3.357-1.152t-2.036-2.848q0.589 0.089 1.089 0.089 0.768 0 1.518-0.196-2-0.411-3.313-1.991t-1.313-3.67v-0.071q1.214 0.679 2.607 0.732-1.179-0.786-1.875-2.054t-0.696-2.75q0-1.571 0.786-2.911 2.161 2.661 5.259 4.259t6.634 1.777q-0.143-0.679-0.143-1.321 0-2.393 1.688-4.080t4.080-1.688q2.5 0 4.214 1.821 1.946-0.375 3.661-1.393-0.661 2.054-2.536 3.179 1.661-0.179 3.321-0.893z"></path>
		</symbol>
		<symbol id="icon-user" viewBox="0 0 32 32">
			<title>user</title>
			<path d="M28.571 25.089q0 2.143-1.304 3.384t-3.464 1.241h-15.607q-2.161 0-3.464-1.241t-1.304-3.384q0-0.946 0.063-1.848t0.25-1.946 0.473-1.938 0.768-1.741 1.107-1.446 1.527-0.955 1.991-0.357q0.161 0 0.75 0.384t1.33 0.857 1.929 0.857 2.384 0.384 2.384-0.384 1.929-0.857 1.33-0.857 0.75-0.384q1.089 0 1.991 0.357t1.527 0.955 1.107 1.446 0.768 1.741 0.473 1.938 0.25 1.946 0.063 1.848zM22.857 9.143q0 2.839-2.009 4.848t-4.848 2.009-4.848-2.009-2.009-4.848 2.009-4.848 4.848-2.009 4.848 2.009 2.009 4.848z"></path>
		</symbol>
		<symbol id="icon-youtube-play" viewBox="0 0 32 32">
			<title>youtube-play</title>
			<path d="M22.857 16q0-0.661-0.536-0.964l-9.143-5.714q-0.554-0.357-1.161-0.036-0.589 0.321-0.589 1v11.429q0 0.679 0.589 1 0.286 0.143 0.554 0.143 0.357 0 0.607-0.179l9.143-5.714q0.536-0.304 0.536-0.964zM32 16q0 1.714-0.018 2.679t-0.152 2.438-0.402 2.634q-0.286 1.304-1.232 2.196t-2.214 1.036q-3.964 0.446-11.982 0.446t-11.982-0.446q-1.268-0.143-2.223-1.036t-1.241-2.196q-0.25-1.161-0.384-2.634t-0.152-2.438-0.018-2.679 0.018-2.679 0.152-2.438 0.402-2.634q0.286-1.304 1.232-2.196t2.214-1.036q3.964-0.446 11.982-0.446t11.982 0.446q1.268 0.143 2.223 1.036t1.241 2.196q0.25 1.161 0.384 2.634t0.152 2.438 0.018 2.679z"></path>
		</symbol>
		<symbol id="icon-angle-down" viewBox="0 0 32 32">
			<title>angle-down</title>
			<path d="M24.911 13.143q0 0.232-0.179 0.411l-8.321 8.321q-0.179 0.179-0.411 0.179t-0.411-0.179l-8.321-8.321q-0.179-0.179-0.179-0.411t0.179-0.411l0.893-0.893q0.179-0.179 0.411-0.179t0.411 0.179l7.018 7.018 7.018-7.018q0.179-0.179 0.411-0.179t0.411 0.179l0.893 0.893q0.179 0.179 0.179 0.411z"></path>
		</symbol>
		<symbol id="icon-archive" viewBox="0 0 32 32">
			<title>archive</title>
			<path d="M19.429 14.857q0-0.464-0.339-0.804t-0.804-0.339h-4.571q-0.464 0-0.804 0.339t-0.339 0.804 0.339 0.804 0.804 0.339h4.571q0.464 0 0.804-0.339t0.339-0.804zM29.714 11.429v17.143q0 0.464-0.339 0.804t-0.804 0.339h-25.143q-0.464 0-0.804-0.339t-0.339-0.804v-17.143q0-0.464 0.339-0.804t0.804-0.339h25.143q0.464 0 0.804 0.339t0.339 0.804zM30.857 3.429v4.571q0 0.464-0.339 0.804t-0.804 0.339h-27.429q-0.464 0-0.804-0.339t-0.339-0.804v-4.571q0-0.464 0.339-0.804t0.804-0.339h27.429q0.464 0 0.804 0.339t0.339 0.804z"></path>
		</symbol>
		<symbol id="icon-building" viewBox="0 0 32 32">
			<title>building</title>
			<path d="M26.286 0q0.464 0 0.804 0.339t0.339 0.804v29.714q0 0.464-0.339 0.804t-0.804 0.339h-22.857q-0.464 0-0.804-0.339t-0.339-0.804v-29.714q0-0.464 0.339-0.804t0.804-0.339h22.857zM11.429 5.143v1.143q0 0.25 0.161 0.411t0.411 0.161h1.143q0.25 0 0.411-0.161t0.161-0.411v-1.143q0-0.25-0.161-0.411t-0.411-0.161h-1.143q-0.25 0-0.411 0.161t-0.161 0.411zM11.429 9.714v1.143q0 0.25 0.161 0.411t0.411 0.161h1.143q0.25 0 0.411-0.161t0.161-0.411v-1.143q0-0.25-0.161-0.411t-0.411-0.161h-1.143q-0.25 0-0.411 0.161t-0.161 0.411zM11.429 14.286v1.143q0 0.25 0.161 0.411t0.411 0.161h1.143q0.25 0 0.411-0.161t0.161-0.411v-1.143q0-0.25-0.161-0.411t-0.411-0.161h-1.143q-0.25 0-0.411 0.161t-0.161 0.411zM11.429 18.857v1.143q0 0.25 0.161 0.411t0.411 0.161h1.143q0.25 0 0.411-0.161t0.161-0.411v-1.143q0-0.25-0.161-0.411t-0.411-0.161h-1.143q-0.25 0-0.411 0.161t-0.161 0.411zM9.143 24.571v-1.143q0-0.25-0.161-0.411t-0.411-0.161h-1.143q-0.25 0-0.411 0.161t-0.161 0.411v1.143q0 0.25 0.161 0.411t0.411 0.161h1.143q0.25 0 0.411-0.161t0.161-0.411zM9.143 20v-1.143q0-0.25-0.161-0.411t-0.411-0.161h-1.143q-0.25 0-0.411 0.161t-0.161 0.411v1.143q0 0.25 0.161 0.411t0.411 0.161h1.143q0.25 0 0.411-0.161t0.161-0.411zM9.143 15.429v-1.143q0-0.25-0.161-0.411t-0.411-0.161h-1.143q-0.25 0-0.411 0.161t-0.161 0.411v1.143q0 0.25 0.161 0.411t0.411 0.161h1.143q0.25 0 0.411-0.161t0.161-0.411zM9.143 10.857v-1.143q0-0.25-0.161-0.411t-0.411-0.161h-1.143q-0.25 0-0.411 0.161t-0.161 0.411v1.143q0 0.25 0.161 0.411t0.411 0.161h1.143q0.25 0 0.411-0.161t0.161-0.411zM9.143 6.286v-1.143q0-0.25-0.161-0.411t-0.411-0.161h-1.143q-0.25 0-0.411 0.161t-0.161 0.411v1.143q0 0.25 0.161 0.411t0.411 0.161h1.143q0.25 0 0.411-0.161t0.161-0.411zM18.286 29.143v-3.429q0-0.25-0.161-0.411t-0.411-0.161h-5.714q-0.25 0-0.411 0.161t-0.161 0.411v3.429q0 0.25 0.161 0.411t0.411 0.161h5.714q0.25 0 0.411-0.161t0.161-0.411zM18.286 20v-1.143q0-0.25-0.161-0.411t-0.411-0.161h-1.143q-0.25 0-0.411 0.161t-0.161 0.411v1.143q0 0.25 0.161 0.411t0.411 0.161h1.143q0.25 0 0.411-0.161t0.161-0.411zM18.286 15.429v-1.143q0-0.25-0.161-0.411t-0.411-0.161h-1.143q-0.25 0-0.411 0.161t-0.161 0.411v1.143q0 0.25 0.161 0.411t0.411 0.161h1.143q0.25 0 0.411-0.161t0.161-0.411zM18.286 10.857v-1.143q0-0.25-0.161-0.411t-0.411-0.161h-1.143q-0.25 0-0.411 0.161t-0.161 0.411v1.143q0 0.25 0.161 0.411t0.411 0.161h1.143q0.25 0 0.411-0.161t0.161-0.411zM18.286 6.286v-1.143q0-0.25-0.161-0.411t-0.411-0.161h-1.143q-0.25 0-0.411 0.161t-0.161 0.411v1.143q0 0.25 0.161 0.411t0.411 0.161h1.143q0.25 0 0.411-0.161t0.161-0.411zM22.857 24.571v-1.143q0-0.25-0.161-0.411t-0.411-0.161h-1.143q-0.25 0-0.411 0.161t-0.161 0.411v1.143q0 0.25 0.161 0.411t0.411 0.161h1.143q0.25 0 0.411-0.161t0.161-0.411zM22.857 20v-1.143q0-0.25-0.161-0.411t-0.411-0.161h-1.143q-0.25 0-0.411 0.161t-0.161 0.411v1.143q0 0.25 0.161 0.411t0.411 0.161h1.143q0.25 0 0.411-0.161t0.161-0.411zM22.857 15.429v-1.143q0-0.25-0.161-0.411t-0.411-0.161h-1.143q-0.25 0-0.411 0.161t-0.161 0.411v1.143q0 0.25 0.161 0.411t0.411 0.161h1.143q0.25 0 0.411-0.161t0.161-0.411zM22.857 10.857v-1.143q0-0.25-0.161-0.411t-0.411-0.161h-1.143q-0.25 0-0.411 0.161t-0.161 0.411v1.143q0 0.25 0.161 0.411t0.411 0.161h1.143q0.25 0 0.411-0.161t0.161-0.411zM22.857 6.286v-1.143q0-0.25-0.161-0.411t-0.411-0.161h-1.143q-0.25 0-0.411 0.161t-0.161 0.411v1.143q0 0.25 0.161 0.411t0.411 0.161h1.143q0.25 0 0.411-0.161t0.161-0.411z"></path>
		</symbol>
		<symbol id="icon-cogs" viewBox="0 0 32 32">
			<title>cogs</title>
			<path d="M14.857 16q0-1.893-1.339-3.232t-3.232-1.339-3.232 1.339-1.339 3.232 1.339 3.232 3.232 1.339 3.232-1.339 1.339-3.232zM28.571 25.143q0-0.929-0.679-1.607t-1.607-0.679-1.607 0.679-0.679 1.607q0 0.946 0.67 1.616t1.616 0.67 1.616-0.67 0.67-1.616zM28.571 6.857q0-0.929-0.679-1.607t-1.607-0.679-1.607 0.679-0.679 1.607q0 0.946 0.67 1.616t1.616 0.67 1.616-0.67 0.67-1.616zM21.714 14.375v3.304q0 0.179-0.125 0.348t-0.286 0.188l-2.768 0.429q-0.196 0.625-0.571 1.357 0.607 0.857 1.607 2.054 0.125 0.179 0.125 0.357 0 0.214-0.125 0.339-0.411 0.536-1.473 1.598t-1.402 1.063q-0.196 0-0.375-0.125l-2.054-1.607q-0.661 0.339-1.375 0.554-0.196 1.929-0.411 2.768-0.125 0.429-0.536 0.429h-3.321q-0.196 0-0.357-0.134t-0.179-0.313l-0.411-2.732q-0.607-0.179-1.339-0.554l-2.107 1.589q-0.125 0.125-0.357 0.125-0.196 0-0.375-0.143-2.571-2.375-2.571-2.857 0-0.161 0.125-0.339 0.179-0.25 0.732-0.946t0.839-1.089q-0.411-0.786-0.625-1.464l-2.714-0.429q-0.179-0.018-0.304-0.17t-0.125-0.348v-3.304q0-0.179 0.125-0.348t0.286-0.188l2.768-0.429q0.196-0.625 0.571-1.357-0.607-0.857-1.607-2.054-0.125-0.196-0.125-0.357 0-0.214 0.125-0.357 0.393-0.536 1.464-1.589t1.411-1.054q0.196 0 0.375 0.125l2.054 1.607q0.607-0.321 1.375-0.571 0.196-1.929 0.411-2.75 0.125-0.429 0.536-0.429h3.321q0.196 0 0.357 0.134t0.179 0.313l0.411 2.732q0.607 0.179 1.339 0.554l2.107-1.589q0.143-0.125 0.357-0.125 0.196 0 0.375 0.143 2.571 2.375 2.571 2.857 0 0.161-0.125 0.339-0.214 0.286-0.75 0.964t-0.804 1.071q0.411 0.857 0.607 1.464l2.714 0.411q0.179 0.036 0.304 0.188t0.125 0.348zM33.143 23.893v2.5q0 0.286-2.661 0.554-0.214 0.482-0.536 0.929 0.911 2.018 0.911 2.464 0 0.071-0.071 0.125-2.179 1.268-2.214 1.268-0.143 0-0.821-0.839t-0.929-1.214q-0.357 0.036-0.536 0.036t-0.536-0.036q-0.25 0.375-0.929 1.214t-0.821 0.839q-0.036 0-2.214-1.268-0.071-0.054-0.071-0.125 0-0.446 0.911-2.464-0.321-0.446-0.536-0.929-2.661-0.268-2.661-0.554v-2.5q0-0.286 2.661-0.554 0.232-0.518 0.536-0.929-0.911-2.018-0.911-2.464 0-0.071 0.071-0.125 0.071-0.036 0.625-0.357t1.054-0.607 0.536-0.286q0.143 0 0.821 0.83t0.929 1.205q0.357-0.036 0.536-0.036t0.536 0.036q0.911-1.268 1.643-2l0.107-0.036q0.071 0 2.214 1.25 0.071 0.054 0.071 0.125 0 0.446-0.911 2.464 0.304 0.411 0.536 0.929 2.661 0.268 2.661 0.554zM33.143 5.607v2.5q0 0.286-2.661 0.554-0.214 0.482-0.536 0.929 0.911 2.018 0.911 2.464 0 0.071-0.071 0.125-2.179 1.268-2.214 1.268-0.143 0-0.821-0.839t-0.929-1.214q-0.357 0.036-0.536 0.036t-0.536-0.036q-0.25 0.375-0.929 1.214t-0.821 0.839q-0.036 0-2.214-1.268-0.071-0.054-0.071-0.125 0-0.446 0.911-2.464-0.321-0.446-0.536-0.929-2.661-0.268-2.661-0.554v-2.5q0-0.286 2.661-0.554 0.232-0.518 0.536-0.929-0.911-2.018-0.911-2.464 0-0.071 0.071-0.125 0.071-0.036 0.625-0.357t1.054-0.607 0.536-0.286q0.143 0 0.821 0.83t0.929 1.205q0.357-0.036 0.536-0.036t0.536 0.036q0.911-1.268 1.643-2l0.107-0.036q0.071 0 2.214 1.25 0.071 0.054 0.071 0.125 0 0.446-0.911 2.464 0.304 0.411 0.536 0.929 2.661 0.268 2.661 0.554z"></path>
		</symbol>
		<symbol id="icon-comments-o" viewBox="0 0 32 32">
			<title>comments-o</title>
			<path d="M12.571 6.857q-2.732 0-5.107 0.929t-3.777 2.518-1.402 3.411q0 1.464 0.946 2.821t2.661 2.357l1.732 1-0.625 1.5q0.607-0.357 1.107-0.696l0.786-0.554 0.946 0.179q1.393 0.25 2.732 0.25 2.732 0 5.107-0.929t3.777-2.518 1.402-3.411-1.402-3.411-3.777-2.518-5.107-0.929zM12.571 4.571q3.411 0 6.313 1.223t4.58 3.33 1.679 4.589-1.679 4.589-4.58 3.33-6.313 1.223q-1.536 0-3.143-0.286-2.214 1.571-4.964 2.286-0.643 0.161-1.536 0.286h-0.054q-0.196 0-0.366-0.143t-0.205-0.375q-0.018-0.054-0.018-0.116t0.009-0.116 0.036-0.107l0.045-0.089 0.063-0.098 0.071-0.089 0.080-0.089 0.071-0.080q0.089-0.107 0.411-0.446t0.464-0.527 0.402-0.518 0.446-0.688 0.366-0.786q-2.214-1.286-3.482-3.161t-1.268-4q0-2.482 1.679-4.589t4.58-3.33 6.312-1.223zM27.25 25.446q0.179 0.429 0.366 0.786t0.446 0.688 0.402 0.518 0.464 0.527 0.411 0.446q0.018 0.018 0.071 0.080t0.080 0.089 0.071 0.089 0.063 0.098l0.045 0.089 0.036 0.107 0.009 0.116-0.018 0.116q-0.054 0.25-0.232 0.393t-0.393 0.125q-0.893-0.125-1.536-0.286-2.75-0.714-4.964-2.286-1.607 0.286-3.143 0.286-4.839 0-8.429-2.357 1.036 0.071 1.571 0.071 2.875 0 5.518-0.804t4.714-2.304q2.232-1.643 3.429-3.786t1.196-4.536q0-1.375-0.411-2.714 2.304 1.268 3.643 3.179t1.339 4.107q0 2.143-1.268 4.009t-3.482 3.152z"></path>
		</symbol>
		<symbol id="icon-envelope-o" viewBox="0 0 32 32">
			<title>envelope-o</title>
			<path d="M29.714 26.857v-13.714q-0.571 0.643-1.232 1.179-4.786 3.679-7.607 6.036-0.911 0.768-1.482 1.196t-1.545 0.866-1.83 0.438h-0.036q-0.857 0-1.83-0.438t-1.545-0.866-1.482-1.196q-2.821-2.357-7.607-6.036-0.661-0.536-1.232-1.179v13.714q0 0.232 0.17 0.402t0.402 0.17h26.286q0.232 0 0.402-0.17t0.17-0.402zM29.714 8.089v-0.438l-0.009-0.232-0.054-0.223-0.098-0.161-0.161-0.134-0.25-0.045h-26.286q-0.232 0-0.402 0.17t-0.17 0.402q0 3 2.625 5.071 3.446 2.714 7.161 5.661 0.107 0.089 0.625 0.527t0.821 0.67 0.795 0.563 0.902 0.491 0.768 0.161h0.036q0.357 0 0.768-0.161t0.902-0.491 0.795-0.563 0.821-0.67 0.625-0.527q3.714-2.946 7.161-5.661 0.964-0.768 1.795-2.063t0.83-2.348zM32 7.429v19.429q0 1.179-0.839 2.018t-2.018 0.839h-26.286q-1.179 0-2.018-0.839t-0.839-2.018v-19.429q0-1.179 0.839-2.018t2.018-0.839h26.286q1.179 0 2.018 0.839t0.839 2.018z"></path>
		</symbol>
		<symbol id="icon-facebook" viewBox="0 0 32 32">
			<title>facebook</title>
			<path d="M23.982 0.214v4.714h-2.804q-1.536 0-2.071 0.643t-0.536 1.929v3.375h5.232l-0.696 5.286h-4.536v13.554h-5.464v-13.554h-4.554v-5.286h4.554v-3.893q0-3.321 1.857-5.152t4.946-1.83q2.625 0 4.071 0.214z"></path>
		</symbol>
		<symbol id="icon-female" viewBox="0 0 32 32">
			<title>female</title>
			<path d="M27.429 18.857q0 0.714-0.5 1.214t-1.214 0.5q-0.911 0-1.429-0.768l-4.054-6.089h-0.804v2.357l4.411 7.339q0.161 0.268 0.161 0.589 0 0.464-0.339 0.804t-0.804 0.339h-3.429v4.857q0 0.821-0.589 1.411t-1.411 0.589h-2.857q-0.821 0-1.411-0.589t-0.589-1.411v-4.857h-3.429q-0.464 0-0.804-0.339t-0.339-0.804q0-0.321 0.161-0.589l4.411-7.339v-2.357h-0.804l-4.054 6.089q-0.518 0.768-1.429 0.768-0.714 0-1.214-0.5t-0.5-1.214q0-0.518 0.286-0.946l4.571-6.857q1.304-1.911 3.143-1.911h6.857q1.839 0 3.143 1.911l4.571 6.857q0.286 0.429 0.286 0.946zM20 4.571q0 1.661-1.17 2.83t-2.83 1.17-2.83-1.17-1.17-2.83 1.17-2.83 2.83-1.17 2.83 1.17 1.17 2.83z"></path>
		</symbol>
		<symbol id="icon-graduation-cap" viewBox="0 0 32 32">
			<title>graduation-cap</title>
			<path d="M27.107 14.929l0.321 5.643q0.071 1.232-1.464 2.286t-4.196 1.67-5.768 0.616-5.768-0.616-4.196-1.67-1.464-2.286l0.321-5.643 10.25 3.232q0.393 0.125 0.857 0.125t0.857-0.125zM36.571 9.143q0 0.411-0.393 0.554l-20 6.286q-0.071 0.018-0.179 0.018t-0.179-0.018l-11.643-3.679q-0.768 0.607-1.268 1.991t-0.607 3.188q1.125 0.643 1.125 1.946 0 1.232-1.036 1.911l1.036 7.732q0.036 0.25-0.143 0.446-0.161 0.196-0.429 0.196h-3.429q-0.268 0-0.429-0.196-0.179-0.196-0.143-0.446l1.036-7.732q-1.036-0.679-1.036-1.911 0-1.304 1.161-1.982 0.196-3.696 1.75-5.893l-5.946-1.857q-0.393-0.143-0.393-0.554t0.393-0.554l20-6.286q0.071-0.018 0.179-0.018t0.179 0.018l20 6.286q0.393 0.143 0.393 0.554z"></path>
		</symbol>
		<symbol id="icon-search" viewBox="0 0 32 32">
			<title>search</title>
			<path d="M21.714 14.857q0-3.304-2.348-5.652t-5.652-2.348-5.652 2.348-2.348 5.652 2.348 5.652 5.652 2.348 5.652-2.348 2.348-5.652zM30.857 29.714q0 0.929-0.679 1.607t-1.607 0.679q-0.964 0-1.607-0.679l-6.125-6.107q-3.196 2.214-7.125 2.214-2.554 0-4.884-0.991t-4.018-2.679-2.679-4.018-0.991-4.884 0.991-4.884 2.679-4.018 4.018-2.679 4.884-0.991 4.884 0.991 4.018 2.679 2.679 4.018 0.991 4.884q0 3.929-2.214 7.125l6.125 6.125q0.661 0.661 0.661 1.607z"></path>
		</symbol>

<symbol viewBox="-111.4 295.9 197.7 200.2" id="icon-trophy_1">
	<title>trophy_1</title>
	<g>
		<path d="M46.3,356.2c-3.2-2.5-6.6-5-7.6-7.5c-1.1-2.6-0.5-7,0-11.1c0.8-6.2,1.7-12.7-2.3-16.6c-2.7-2.7-6.3-3-8.9-3
			c-2.5,0-5.1,0.3-7.7,0.7c-2.4,0.3-4.9,0.6-7.1,0.6c-1.7,0-3-0.2-4-0.6c-2.4-1-5-4.4-7.5-7.6c-3.9-5.1-7.9-10.4-13.7-10.4
			s-9.8,5.3-13.7,10.4c-2.5,3.2-5,6.6-7.5,7.6c-1,0.4-2.3,0.6-4,0.6c-2.2,0-4.7-0.3-7.1-0.6c-2.6-0.3-5.2-0.7-7.7-0.7
			s-6.2,0.3-8.9,3c-3.9,3.9-3.1,10.3-2.3,16.6c0.5,4.2,1.1,8.5,0,11.1c-1,2.4-4.4,5-7.6,7.5c-5.1,3.9-10.4,7.9-10.4,13.7
			s5.3,9.8,10.4,13.7c3.2,2.5,6.6,5,7.6,7.5c1.1,2.6,0.5,7,0,11.1c-0.8,6.2-1.7,12.7,2.3,16.6c2.7,2.7,6.3,3,8.9,3
			c2.5,0,5.1-0.3,7.7-0.7l0,0v67.5c0,1,0.6,1.8,1.4,2.3c0.3,0.2,0.7,0.2,1.1,0.2c0.6,0,1.1-0.2,1.6-0.5l27.8-22.2l28.7,22.3
			c0.4,0.3,1,0.5,1.5,0.5c0.4,0,0.8-0.1,1.1-0.3c0.9-0.4,1.4-1.3,1.4-2.2v-67.5l0,0c2.6,0.3,5.2,0.7,7.7,0.7l0,0
			c2.5,0,6.2-0.3,8.9-3c3.9-3.9,3.1-10.4,2.3-16.6c-0.5-4.2-1.1-8.5,0-11.1c1-2.4,4.4-5,7.6-7.5c5.1-3.9,10.4-7.9,10.4-13.7
			C56.7,364.2,51.4,360.1,46.3,356.2z M-39.8,420.5C-39.8,420.5-39.7,420.5-39.8,420.5c0.3,0,0.6,0,0.8,0c0.1,0,0.2,0,0.3,0
			c0.3,0,0.6,0,0.9,0c1.7,0,3,0.2,4,0.6c2.4,1,5,4.4,7.5,7.6c0.2,0.3,0.4,0.6,0.6,0.8c0.1,0.1,0.1,0.1,0.2,0.2
			c0.2,0.2,0.3,0.5,0.5,0.7c0.1,0.1,0.1,0.2,0.2,0.2c0.2,0.2,0.3,0.4,0.5,0.7c0.1,0.1,0.1,0.1,0.2,0.2c0.2,0.2,0.4,0.5,0.6,0.7
			l0.1,0.1c2.3,2.8,4.8,5.2,7.9,6.2v25.4l-24.3,19.5L-39.8,420.5L-39.8,420.5z M-10.5,463.9v-25l0,0c0.1,0,0.2,0,0.3-0.1
			c0.2-0.1,0.5-0.1,0.7-0.2c0.1,0,0.2-0.1,0.3-0.1c0.2-0.1,0.4-0.1,0.6-0.2c0.1-0.1,0.2-0.1,0.4-0.2c0.2-0.1,0.4-0.2,0.5-0.3
			s0.2-0.1,0.4-0.2c0.2-0.1,0.3-0.2,0.5-0.3c0.1-0.1,0.2-0.1,0.3-0.2c0.2-0.1,0.3-0.3,0.5-0.4c0.1-0.1,0.2-0.1,0.3-0.2
			c0.2-0.2,0.4-0.3,0.6-0.5c0.1-0.1,0.1-0.1,0.2-0.2c0.3-0.2,0.5-0.5,0.8-0.7L-4,435c0.2-0.2,0.4-0.4,0.6-0.6
			c0.1-0.1,0.2-0.2,0.3-0.3c0.2-0.2,0.3-0.3,0.5-0.5c0.1-0.1,0.2-0.2,0.3-0.3c0.1-0.2,0.3-0.3,0.4-0.5c0.1-0.1,0.2-0.2,0.3-0.4
			c0.1-0.2,0.3-0.4,0.4-0.5c0.1-0.1,0.2-0.2,0.3-0.4c0.1-0.2,0.3-0.4,0.4-0.6c0.1-0.1,0.2-0.2,0.3-0.4c0.2-0.2,0.3-0.4,0.5-0.6
			c0.1-0.1,0.2-0.2,0.2-0.3c0.2-0.3,0.4-0.6,0.7-0.9c2.5-3.2,5-6.6,7.5-7.6c1-0.4,2.3-0.6,4-0.6c0.3,0,0.6,0,0.9,0
			c0.1,0,0.2,0,0.3,0c0.2,0,0.5,0,0.7,0c0,0,0,0,0.1,0v63L-10.5,463.9z M43.3,379.6c-3.8,2.9-7.7,5.8-9.2,9.5
			c-1.6,3.9-0.9,8.9-0.3,13.7c0.7,5,1.3,10.2-0.8,12.4c-1,1-2.7,1.5-5.3,1.5l0,0c-2.1,0-4.5-0.3-7.1-0.6c-1-0.1-2-0.3-2.9-0.4
			c-1.9-0.2-3.5-0.3-4.8-0.3c-2.4,0-4.3,0.3-6,1c-3.7,1.5-6.7,5.4-9.5,9.2c-3.1,4.1-6.4,8.4-9.7,8.4c-0.1,0-0.1,0-0.2,0l0,0h-0.1
			c-3.2-0.2-6.4-4.4-9.4-8.4c-2.9-3.8-5.8-7.7-9.5-9.2c-1.6-0.7-3.6-1-6-1c-0.3,0-0.7,0-1.1,0c-1.1,0-2.3,0.1-3.7,0.3
			c-1,0.1-1.9,0.2-2.9,0.4c-2.5,0.3-4.9,0.6-7.1,0.6c-2.6,0-4.3-0.5-5.3-1.5c-2.2-2.2-1.5-7.4-0.8-12.4c0.6-4.8,1.3-9.8-0.3-13.7
			c-1.5-3.7-5.4-6.7-9.2-9.5c-4.1-3.1-8.4-6.4-8.4-9.7s4.3-6.6,8.4-9.7c3.8-2.9,7.7-5.8,9.2-9.5c1.6-3.9,0.9-8.9,0.3-13.7
			c-0.7-5-1.3-10.2,0.8-12.4c1-1,2.7-1.5,5.3-1.5c2.1,0,4.5,0.3,7.1,0.6c2.6,0.3,5.3,0.7,7.7,0.7c2.4,0,4.3-0.3,6-1
			c3.7-1.5,6.7-5.4,9.5-9.2c3.1-4.1,6.4-8.4,9.7-8.4s6.6,4.3,9.7,8.4c2.9,3.8,5.8,7.7,9.5,9.2c1.6,0.7,3.6,1,6,1
			c2.5,0,5.2-0.4,7.7-0.7c2.5-0.3,4.9-0.6,7.1-0.6c2.6,0,4.3,0.5,5.3,1.5c2.2,2.2,1.5,7.4,0.8,12.4c-0.6,4.8-1.3,9.8,0.3,13.7
			c1.5,3.7,5.4,6.7,9.2,9.5c4.1,3.1,8.4,6.4,8.4,9.7C51.7,373.2,47.4,376.5,43.3,379.6z"/>
		<path d="M-12.5,331.5c-21.2,0-38.4,17.2-38.4,38.4c0,21.2,17.2,38.4,38.4,38.4s38.4-17.2,38.4-38.4
			S8.7,331.5-12.5,331.5z M-12.5,403.3c-18.4,0-33.4-15-33.4-33.4s15-33.4,33.4-33.4s33.4,15,33.4,33.4S5.9,403.3-12.5,403.3z"/>
	</g>
</symbol>
<symbol viewBox="-111.4 295.9 197.7 200.2" id="icon-trophy_2">
	<title>trophy_2</title>
	<path d="M80.9,409.3c-1-0.9-2.6-0.8-3.5,0.2l-1,1.2c-0.5,0.6-1.1,1.3-2,2.1c-1.1,1.1-2.2,2.1-3.2,3.1
		c-1.1,0.9-2.4,2-4,3.2c-0.6,0.5-1.3,0.9-1.9,1.4c-0.7,0.5-1.4,0.9-2,1.3l-0.6,0.4c-0.4,0.3-0.8,0.5-1.2,0.7l-0.6,0.3
		c0.1-0.3,0.2-0.5,0.4-0.8c0.1-0.3,0.2-0.6,0.3-0.8c0.6-1.4,1.1-2.7,1.5-4.1c0.1-0.4,0.3-0.9,0.4-1.3l0.2-0.7c0-0.1,0-0.1,0-0.2
		l0.5-2c0.1-0.3,0.1-0.6,0.2-0.9c0.2-0.6,0.3-1.3,0.4-1.9l0.1-0.6c0.2-0.1,0.5-0.2,0.7-0.4l0.7-0.7c0.5-0.5,1.1-1.1,1.8-1.9l0.2-0.2
		c1-1.1,1.8-2.1,2.7-3.1c0.9-1.2,1.9-2.4,2.8-3.7c0.9-1.2,1.7-2.5,2.5-3.7l0.5-0.9c0.3-0.5,0.6-1,0.9-1.5l1-1.7
		c0.6-1.1,1.1-2,1.5-2.8l0.5-1c0.6-1.2,0.1-2.7-1.2-3.3c-1.2-0.6-2.7-0.1-3.3,1.2l-0.5,1c-0.3,0.6-0.8,1.5-1.4,2.6l-0.9,1.7
		c-0.2,0.4-0.5,0.9-0.8,1.3l-0.5,0.8c-0.7,1.1-1.4,2.3-2.3,3.4c-0.9,1.2-1.8,2.4-2.6,3.5c-0.4,0.5-0.8,0.9-1.2,1.4
		c0-0.5,0-1,0.1-1.5c0-0.3,0-0.7,0-1c0.1-1.6,0.1-3.2,0-4.8v-1c-0.1-1.8-0.3-3.6-0.5-5.4c0.1-0.1,0.2-0.2,0.3-0.4c0,0,0.2-0.4,0.5-1
		l1.9-3.8v-0.1l0.8-1.8c0.5-1.2,1.1-2.6,1.5-4c1-2.9,1.8-5.8,2.4-8c0.5-2.2,0.8-3.8,0.8-3.8c0.3-1.4-0.6-2.7-2-2.9
		c-1.4-0.3-2.7,0.6-2.9,2c0,0-0.3,1.5-0.7,3.5c-0.5,2.1-1.2,4.8-2.2,7.5c-0.4,1.2-0.9,2.5-1.4,3.7l-0.3,0.8
		c-0.7-2.8-1.5-5.6-2.5-8.3c-0.6-1.5-1.2-3.1-1.9-4.6c0-0.1,0-0.1,0.1-0.1c0,0,0.1-0.4,0.2-1l0.4-2.2c0.2-1,0.3-2.1,0.5-3.4l0.1-0.6
		c0.1-1,0.2-2.2,0.3-3.3c0.1-1.3,0.1-2.7,0.1-4c0-1.3,0-2.5-0.1-3.5c0-1.2-0.1-2.1-0.1-2.6l-0.1-0.9c-0.1-1.4-1.3-2.4-2.7-2.3
		s-2.4,1.3-2.3,2.7l0.1,0.9c0,0.4,0.1,1.2,0.1,2.3c0,1,0.1,2.1,0.1,3.3c0,1.2-0.1,2.5-0.1,3.8c-0.1,1-0.2,2.1-0.3,3.1v0.5
		c-1.3-2.2-2.8-4.4-4.4-6.6c-1.2-1.6-2.4-3-3.5-4.3c0,0-0.1-1.1-0.3-2.8c-0.2-1.6-0.5-3.6-1.1-6.6c-0.4-1.9-1.1-4.5-1.8-6.5
		l-0.7-2.1c-0.2-0.6-0.3-1-0.3-1c-0.5-1.3-2-1.9-3.3-1.3c-1.3,0.5-1.9,2-1.4,3.2c0,0,0.1,0.3,0.2,0.6l0.7,2.1c0.5,1.4,1.1,3.5,1.6,6
		c0.1,0.7,0.3,1.5,0.5,2.3c-3.3-3-6.9-5.7-10.8-8.2l-0.8-2c-0.6-1.5-1.5-3.3-2.5-5.2l-0.1-0.2c-1.3-2.3-2.3-4-3.1-5.2
		c-0.9-1.3-1.5-2.2-1.5-2.2c-0.8-1.1-2.3-1.4-3.5-0.7c-1.1,0.8-1.4,2.3-0.7,3.5c0,0,0.6,0.9,1.5,2.2c0.7,1.1,1.6,2.6,2.8,4.7v0.1
		c0.1,0.3,0.3,0.6,0.4,0.8c-4.7-2.2-9-3.7-12.8-4.7l-0.9-1.1c-0.8-1-1.9-2.1-3.5-3.8c-0.6-0.7-1.3-1.3-2.1-2L3,317.1
		c-0.6-0.5-1.1-0.9-1.4-1.2l-0.5-0.4c-1.1-0.9-2.6-0.7-3.5,0.3c-0.9,1.1-0.7,2.6,0.3,3.5l0.5,0.4c0.3,0.2,0.7,0.6,1.2,1l1.8,1.6
		c0.6,0.5,1.1,1.1,1.6,1.6c-2.3-0.3-4.2-0.5-5.5-0.6l-1.2-0.1h-0.1h-1.5c0,0,0,0-0.1,0c-1.4,0-2.5,1.1-2.5,2.4
		c0,1.4,1.1,2.5,2.4,2.6l2.5,0.1c1.3,0.1,3.1,0.2,5.3,0.6c0,0-0.1,0-0.1,0.1c-0.7,0.4-1.5,0.9-2.3,1.4l-1.8,1.2
		c-0.6,0.4-1,0.7-1.3,0.9l-0.5,0.3c-1.1,0.8-1.3,2.4-0.5,3.5c0.5,0.7,1.2,1,2,1c0.5,0,1-0.2,1.5-0.5l0.5-0.4
		c0.3-0.2,0.6-0.5,1.1-0.7l1.8-1.2c0.7-0.4,1.3-0.8,2-1.2c1.7-1,3-1.7,4-2.1l1.6-0.7c3.5,0.9,7.4,2.3,11.7,4.3
		c-0.4,0.1-0.8,0.2-1.3,0.3h-0.2c-1.6,0.4-3.6,1-5.1,1.5l-2.1,0.8c-1.3,0.5-2,1.9-1.5,3.2c0.4,1,1.3,1.6,2.3,1.6
		c0.3,0,0.6,0,0.9-0.2l2.1-0.8c1.3-0.5,3.2-1,4.7-1.4c1.8-0.4,3.6-0.8,4.9-1l2.3-0.3c3.6,2.3,6.9,4.8,9.9,7.5
		c-0.8-0.1-1.7-0.1-2.7-0.2c-2.5-0.1-4.5,0-5.9,0.1l-1.8,0.1c-0.5,0-0.8,0.1-0.8,0.1c-1.4,0.2-2.3,1.5-2.1,2.8
		c0.2,1.3,1.5,2.3,2.8,2.1c0,0,0.2,0,0.5-0.1l1.8-0.1c1.3-0.1,3.1-0.1,5.4-0.1c2.5,0.1,4.3,0.3,5.6,0.5c1.6,0.2,2.6,0.4,2.6,0.4
		c0.1,0,0.1,0,0.2,0c1,1.2,2,2.4,3.1,3.8c1.5,2.1,2.9,4.2,4.2,6.3c-0.1-0.1-0.3-0.1-0.4-0.2l-0.6-0.2c-0.9-0.3-1.8-0.7-2.7-1
		c-1.1-0.4-2.3-0.7-3.4-1c-1.1-0.3-2.1-0.5-2.9-0.7c-1-0.2-1.7-0.3-2.1-0.4l-0.8-0.1c-1.4-0.2-2.6,0.7-2.9,2.1
		c-0.2,1.4,0.7,2.6,2.1,2.9l0.8,0.1c0.3,0,0.9,0.1,1.8,0.3c0.8,0.2,1.7,0.4,2.7,0.6c1,0.3,2.1,0.6,3.2,0.9c0.8,0.3,1.6,0.6,2.5,0.9
		l0.6,0.2c1,0.4,1.8,0.7,2.6,1.1l2,0.9c0.3,0.2,0.5,0.3,0.6,0.3c0.2,0.1,0.3,0.2,0.5,0.2c0.6,1.3,1.2,2.7,1.7,4
		c0.9,2.6,1.7,5.2,2.3,7.8l-1-0.8l-0.1-0.1c-1-0.7-2-1.5-3.1-2.2c-2.2-1.5-4.5-2.8-6.1-3.6c-1.7-0.8-2.8-1.3-2.8-1.3
		c-1.3-0.6-2.7,0-3.3,1.3c-0.6,1.3,0,2.7,1.3,3.3c0,0,1,0.5,2.6,1.2c1.4,0.8,3.6,1.9,5.6,3.3c1,0.6,1.9,1.3,2.9,2.1l1.3,1l2.9,2.5
		c0.3,0.3,0.5,0.5,0.5,0.5c0.2,0.2,0.4,0.3,0.6,0.5c0.2,1.6,0.3,3.2,0.4,4.8v0.9c0,1.5,0.1,2.9,0,4.4c0,0.4,0,0.7,0,1.1
		c0,0.5,0,1-0.1,1.5c-0.4-0.6-0.9-1.3-1.3-1.9c-0.8-1.1-1.7-2.2-2.6-3.2c-0.9-1.1-1.8-2.1-2.7-3l-0.4-0.4c-0.4-0.4-0.7-0.7-1.1-1.1
		l-1.2-1.1c-0.7-0.7-1.4-1.2-1.9-1.6l-0.7-0.6c-1.1-0.9-2.7-0.7-3.5,0.4c-0.9,1.1-0.7,2.7,0.4,3.5l0.6,0.5c0.4,0.3,1,0.9,1.7,1.5
		l1.1,1.1c0.3,0.3,0.6,0.6,0.9,0.9l0.4,0.4c0.8,0.8,1.7,1.7,2.4,2.7c0.8,1,1.7,2.1,2.4,3c0.6,0.9,1.3,1.8,1.9,2.9l0.2,0.3
		c0.4,0.7,0.9,1.3,1.1,1.8l0.5,0.8c0.2,0.3,0.4,0.5,0.6,0.7l-0.1,0.4c-0.1,0.5-0.2,1-0.4,1.5c-0.1,0.3-0.2,0.7-0.2,1l-0.3,1.3
		l-0.3,1.1c-0.2,0.4-0.3,0.9-0.4,1.3c-0.4,1.3-0.8,2.5-1.3,3.6c-0.1,0.3-0.3,0.6-0.4,0.9c-0.1,0.3-0.2,0.5-0.3,0.8l-0.2-1
		c-0.1-0.5-0.3-1.1-0.5-1.6l-0.2-0.5c-0.2-0.7-0.5-1.4-0.7-2.1c-0.2-0.6-0.5-1.4-0.9-2.2c-0.7-1.6-1.3-2.8-1.9-3.9
		c-0.6-1.1-1.2-2.1-1.8-3.1c-0.5-0.9-1.1-1.6-1.4-2.1l-0.6-0.8c-0.8-1.1-2.4-1.3-3.5-0.5c-1.1,0.8-1.3,2.4-0.5,3.5l0.6,0.8
		c0.3,0.4,0.8,1,1.2,1.8c0.6,0.9,1.2,1.9,1.7,2.9s1,2.1,1.7,3.6c0.3,0.6,0.5,1.2,0.7,1.8s0.4,1.3,0.6,1.9l0.2,0.5
		c0.1,0.4,0.3,0.9,0.4,1.2l0.4,1.7c0.2,1.1,0.4,2,0.6,2.7c0,0.2,0.1,0.3,0.1,0.4l0.1,0.4c0.1,0.4,0.2,0.8,0.5,1.2
		c-2.1,3.5-4.7,6.9-7.8,10.2c0.1-1.1,0.1-2.3,0.2-3.5v-1.1c0-0.6,0-1.2,0-1.8c0-0.8-0.1-1.6-0.1-2.4s-0.1-1.6-0.2-2.4
		c-0.1-0.8-0.2-1.5-0.3-2.3l-0.1-0.7c-0.2-1.1-0.4-2.2-0.6-3.2c-0.6-2.2-1-3.5-1-3.5c-0.4-1.3-1.8-2-3.1-1.6s-2,1.8-1.6,3.1
		c0,0,0.4,1.3,0.9,3.3c0.2,0.7,0.4,1.6,0.5,2.7l0.1,0.7c0.1,0.7,0.2,1.4,0.3,2c0.1,0.7,0.1,1.5,0.2,2.2c0,0.8,0.1,1.5,0.1,2.3
		c0,0.5,0,1,0,1.5v1.1c0,1.3-0.1,2.5-0.2,3.5c-0.2,2.3-0.5,4-0.5,4c-0.1,0.5,0,0.9,0.2,1.4c-3.1,2.8-6.6,5.5-10.4,8.2
		c0-0.1,0.1-0.2,0.1-0.3c0.2-0.6,0.4-1.3,0.6-2c0,0,0-0.2,0.1-0.2l1.5-6V442l0.4-1.8c0.3-1.5,0.6-3,0.8-4.5c0.2-1.4,0.3-2.8,0.4-4.2
		c0.1-0.9,0.1-1.8,0.1-2.4c0-0.2,0-0.4,0-0.7v-1.1c0-1.4-1.1-2.5-2.5-2.5l0,0c-1.4,0-2.5,1.1-2.5,2.5v1c0,0.2,0,0.5,0,0.8
		c0,0.6,0,1.3-0.1,2c-0.1,1.4-0.2,2.7-0.4,4c-0.2,1.3-0.4,2.7-0.7,4.2l-0.3,1.7l-1.5,5.8c-0.2,0.7-0.4,1.3-0.6,1.9
		c-0.4,1.3-0.8,2.3-1,3l-0.4,1.2c-0.2,0.5-0.2,1.1,0,1.5c-3.5,2.1-7.1,3.8-10.7,5.1c-0.5,0.2-0.9,0.3-1.4,0.5
		c0.2-0.3,0.3-0.5,0.5-0.8c1.7-2.7,3.4-6.1,4.6-9.2c1.4-3.6,2.4-7,2.9-9.2l1.1-4.2c0.3-1.3-0.5-2.7-1.8-3c-1.3-0.3-2.7,0.5-3,1.8
		l-1.1,4.3c-0.4,1.7-1.3,5.1-2.7,8.6c-1.1,2.8-2.6,5.9-4.2,8.3c-0.8,1.3-1.5,2.2-1.8,2.7l-0.8,1.1c-0.4,0.5-0.5,1.1-0.5,1.7
		c-2.1,0.5-4.1,0.9-6,1.2c-4.5,0.8-8,1.6-10.8,2.7c-2.8-1.1-6.3-1.9-10.8-2.7c-1.9-0.4-3.9-0.8-6-1.2c0.1-0.6-0.1-1.2-0.5-1.7
		l-0.8-1c-0.3-0.5-1-1.4-1.8-2.7c-1.6-2.5-3.1-5.5-4.2-8.3c-1.4-3.5-2.3-6.9-2.7-8.6l-1.1-4.2c-0.3-1.3-1.7-2.2-3-1.8
		c-1.3,0.3-2.2,1.7-1.8,3l1.1,4.2c0.5,2.2,1.4,5.7,2.9,9.3c1.2,3.1,2.9,6.4,4.6,9.2c0.2,0.3,0.4,0.6,0.5,0.8
		c-0.5-0.2-0.9-0.3-1.4-0.5c-3.5-1.3-7.1-3-10.6-5.1c0.2-0.5,0.2-1,0-1.6l-2-6.2l-1.1-4.2l-0.7-3.4c-0.3-1.5-0.5-2.8-0.7-4.1
		c-0.2-1.4-0.3-2.8-0.4-4.1c-0.1-0.7-0.1-1.4-0.1-2c0-0.3,0-0.5,0-0.7v-1.1c0-1.4-1.1-2.5-2.5-2.5l0,0c-1.4,0-2.5,1.1-2.5,2.5v1.1
		c0,0.2,0,0.4,0,0.6c0,0.6,0,1.5,0.1,2.4c0.1,1.4,0.3,2.8,0.4,4.3c0.2,1.4,0.5,2.8,0.7,4.4l0.4,2l1.5,6v0.1l0.8,2.4
		c-3.9-2.7-7.3-5.4-10.5-8.2c0.2-0.4,0.3-0.9,0.2-1.4c0,0-0.2-1.7-0.5-4c-0.1-1-0.1-2.3-0.2-3.7v-0.9c0-0.5,0-1,0-1.5
		c0-0.8,0.1-1.5,0.1-2.3c0-0.8,0.1-1.5,0.2-2.1s0.2-1.3,0.3-1.8l0.2-1c0.2-1,0.3-1.9,0.5-2.7c0.5-2,0.9-3.3,0.9-3.3
		c0.4-1.3-0.3-2.7-1.6-3.1c-1.3-0.4-2.7,0.3-3.1,1.6c0,0.1-0.4,1.4-1,3.5c-0.3,1-0.5,2.1-0.7,3.2l-0.2,1c-0.1,0.6-0.2,1.3-0.3,2.1
		c-0.1,0.8-0.1,1.5-0.2,2.3c0,0.8-0.1,1.6-0.1,2.4c0,0.6,0,1.2,0,1.8v1c0,1.3,0.1,2.5,0.2,3.7c-3.1-3.3-5.7-6.8-7.8-10.2
		c0.2-0.3,0.4-0.7,0.5-1.1l0.1-0.5c0-0.1,0-0.2,0.1-0.4c0.1-0.7,0.3-1.6,0.6-2.6l0.4-1.8c0.1-0.4,0.2-0.8,0.4-1.2l0.2-0.5
		c0.2-0.6,0.4-1.3,0.7-2c0.2-0.7,0.4-1.2,0.7-1.8c0.6-1.5,1.2-2.6,1.6-3.5c0.5-1,1.1-2,1.7-3c0.4-0.7,0.9-1.3,1.2-1.8l0.5-0.7
		c0.8-1.1,0.6-2.7-0.5-3.5c-1.1-0.8-2.7-0.6-3.5,0.5l-0.6,0.8c-0.4,0.5-0.9,1.2-1.4,2.1c-0.6,1-1.3,2.1-1.9,3.2
		c-0.5,1.1-1.1,2.3-1.8,3.8c-0.4,0.8-0.6,1.6-0.9,2.2c-0.2,0.7-0.5,1.4-0.7,2.1l-0.2,0.5c-0.2,0.5-0.3,1.1-0.5,1.6l-0.2,0.9
		c-0.1-0.3-0.2-0.5-0.3-0.8c-0.1-0.3-0.3-0.6-0.4-1c-0.5-1.1-0.9-2.3-1.3-3.6c-0.1-0.4-0.3-0.9-0.4-1.3l-0.7-2.4
		c-0.1-0.3-0.2-0.7-0.3-1c-0.1-0.5-0.3-1-0.4-1.5l-0.1-0.4c0.2-0.2,0.5-0.4,0.6-0.7l0.5-0.9c0.2-0.4,0.6-1,1.1-1.7l0.2-0.3
		c0.7-1.1,1.3-2,1.9-2.8c0.8-1,1.6-2.1,2.5-3.1c0.7-0.9,1.6-1.8,2.4-2.6l0.4-0.4c0.3-0.3,0.6-0.6,0.9-0.9l1.1-1
		c0.7-0.6,1.3-1.1,1.6-1.4l0.7-0.5c1.1-0.9,1.3-2.4,0.4-3.5s-2.4-1.3-3.5-0.4l-0.8,0.6c-0.4,0.4-1,0.9-1.8,1.6l-1.1,1l-0.1,0.1
		c-0.3,0.3-0.7,0.7-1,1l-0.4,0.4c-0.8,0.9-1.8,1.9-2.6,2.9c-0.9,1.1-1.8,2.1-2.6,3.3c-0.4,0.6-0.8,1.2-1.3,1.8c0-0.5,0-1-0.1-1.6
		c0-0.3,0-0.7,0-1.1c-0.1-1.4,0-2.9,0-4.4v-0.8c0.1-1.6,0.2-3.2,0.4-4.8c0.2-0.1,0.5-0.3,0.6-0.5c0,0,0.2-0.2,0.5-0.5l2.9-2.5
		l1.4-1.1c0.9-0.7,1.8-1.4,2.9-2.1c2-1.4,4.1-2.5,5.5-3.3c1.6-0.8,2.6-1.2,2.6-1.2c1.3-0.6,1.8-2,1.3-3.3c-0.6-1.3-2-1.8-3.3-1.3
		c0,0-1.1,0.5-2.9,1.4c-1.5,0.8-3.9,2.1-6,3.5c-1.1,0.7-2.1,1.5-3.1,2.2l-0.1,0.1l-1,0.8c0.6-2.7,1.4-5.3,2.3-7.8
		c0.5-1.4,1.1-2.7,1.7-4.1c0.2,0,0.3-0.1,0.5-0.2c0,0,0.2-0.1,0.6-0.3l2-0.9c0.8-0.3,1.6-0.7,2.7-1.1l0.6-0.2
		c0.8-0.3,1.6-0.6,2.5-0.9c1.1-0.3,2.2-0.6,3.1-0.9c1-0.3,2-0.5,2.8-0.6c0.9-0.2,1.5-0.3,1.8-0.3l0.7-0.1c1.4-0.2,2.3-1.5,2.1-2.9
		s-1.5-2.3-2.9-2.1l-0.7,0.1c-0.6,0.1-1.4,0.2-2.1,0.4c-0.8,0.2-1.8,0.4-2.9,0.7c-1,0.3-2.2,0.6-3.3,1c-1,0.3-1.9,0.6-2.7,1
		l-0.6,0.2c-0.1,0.1-0.3,0.1-0.4,0.2c1.3-2.1,2.7-4.2,4.1-6.3c1.1-1.4,2.1-2.7,3.1-3.9c0.1,0,0.1,0,0.2,0c0,0,1.1-0.2,2.7-0.4
		c1.3-0.2,3.1-0.4,5.5-0.5c2.3-0.1,4.1,0,5.5,0.1l1.8,0.1c0.3,0,0.5,0.1,0.5,0.1c1.4,0.2,2.6-0.7,2.8-2.1c0.2-1.4-0.7-2.6-2.1-2.8
		c0,0-0.3,0-0.9-0.1l-1.8-0.1c-1.5-0.1-3.5-0.1-6-0.1c-1,0-1.8,0.1-2.6,0.2c3-2.8,6.3-5.3,9.9-7.5l2.3,0.3c1.3,0.2,3.1,0.6,4.8,1
		l0,0c1.5,0.4,3.4,0.9,4.7,1.4l2.1,0.8c0.3,0.1,0.6,0.2,0.9,0.2c1,0,2-0.6,2.3-1.6c0.5-1.3-0.2-2.7-1.5-3.2l-2.2-0.8
		c-1.5-0.5-3.5-1.1-5.2-1.5h-0.1c-0.4-0.1-0.8-0.2-1.2-0.3c4.2-2,8.2-3.4,11.7-4.3l1.6,0.7c0.9,0.4,2.2,1.1,4,2.1
		c0.6,0.3,1.3,0.7,1.9,1.2l1.8,1.2c0.4,0.3,0.8,0.5,1.1,0.8l0.5,0.3c0.4,0.3,1,0.5,1.5,0.5c0.8,0,1.5-0.4,2-1
		c0.8-1.1,0.6-2.7-0.5-3.5l-0.4-0.3c-0.3-0.2-0.8-0.6-1.4-0.9l-1.8-1.2c-0.8-0.5-1.5-1-2.2-1.3c-0.1,0-0.1-0.1-0.1-0.1
		c2.2-0.3,4.1-0.5,5.3-0.6l2.5-0.1c1.4,0,2.5-1.2,2.4-2.6c0-1.4-1.1-2.4-2.5-2.4c0,0,0,0-0.1,0h-1.5h-0.1l-1.1,0.1
		c-1.3,0.1-3.2,0.2-5.5,0.6c0.5-0.5,1-1,1.6-1.6l1.8-1.6c0.5-0.4,0.9-0.8,1.2-1l0.5-0.4c1.1-0.9,1.2-2.5,0.3-3.5
		c-0.9-1.1-2.5-1.2-3.5-0.3l-0.5,0.4c-0.4,0.3-0.8,0.7-1.4,1.2l-1.8,1.6c-0.7,0.7-1.4,1.4-2,2c-1.6,1.7-2.7,2.9-3.5,3.8l-0.9,1.1
		c-3.8,1-8.1,2.5-12.8,4.7c0.1-0.3,0.3-0.6,0.4-0.9c1.2-2.2,2.2-3.7,2.9-4.8l1.5-2.2c0.8-1.1,0.5-2.7-0.7-3.5
		c-1.1-0.8-2.7-0.5-3.5,0.7l-1.5,2.2c-0.8,1.2-1.8,2.8-3.1,5.2c-1,1.9-1.9,3.7-2.6,5.3l-0.8,2c-3.9,2.4-7.5,5.2-10.8,8.2
		c0.2-0.8,0.3-1.6,0.4-2.2c0.6-2.5,1.2-4.6,1.7-6.1l0.7-2.1c0.1-0.4,0.2-0.6,0.2-0.7c0.5-1.3-0.1-2.7-1.4-3.2s-2.7,0.1-3.2,1.4
		c0,0-0.1,0.3-0.3,0.9l-0.7,2.1c-0.7,2-1.3,4.6-1.8,6.6c-0.6,2.9-0.9,4.9-1.1,6.4c-0.2,1.7-0.3,2.8-0.3,2.8l0,0
		c-1.1,1.3-2.3,2.8-3.6,4.4c-1.6,2.2-3,4.4-4.4,6.6l-0.1-0.5c-0.1-1-0.2-2-0.3-3c-0.1-1.3-0.1-2.6-0.1-3.7c0-1.2,0-2.4,0.1-3.4
		c0-1.2,0.1-1.9,0.1-2.3l0.1-0.9c0.1-1.4-0.9-2.6-2.3-2.7s-2.6,0.9-2.7,2.3l-0.1,0.9c-0.1,0.7-0.1,1.7-0.1,2.6c0,1-0.1,2.2-0.1,3.5
		c0,1.3,0.1,2.6,0.1,3.9c0.1,1.1,0.2,2.3,0.3,3.3l0.1,0.6c0.1,1.2,0.3,2.4,0.5,3.4l0.4,2.2c0.1,0.7,0.2,1,0.2,1c0,0.1,0,0.1,0.1,0.2
		c-0.7,1.5-1.3,3.1-1.9,4.6c-1,2.7-1.8,5.4-2.5,8.2l-0.4-0.8c-0.5-1.2-1-2.4-1.5-3.8c-1-2.7-1.7-5.6-2.2-7.4
		c-0.5-2.1-0.7-3.6-0.7-3.6c-0.3-1.4-1.6-2.3-2.9-2c-1.4,0.3-2.2,1.6-2,2.9c0,0,0.3,1.5,0.8,3.8c0.5,2,1.3,5,2.3,7.9
		c0.5,1.4,1.1,2.8,1.6,4.1l0.7,1.7v0.1l1.9,3.8c0.3,0.6,0.5,1,0.5,1c0.1,0.1,0.2,0.3,0.3,0.4c-0.2,1.8-0.4,3.6-0.5,5.5v0.9
		c0,1.6-0.1,3.2,0,4.8v1c0,0.5,0,1.1,0.1,1.6c-0.4-0.5-0.8-0.9-1.1-1.3c-0.9-1.2-1.8-2.4-2.7-3.6c-0.8-1.1-1.6-2.3-2.3-3.4l-0.4-0.6
		c-0.3-0.5-0.7-1-0.9-1.5l-0.9-1.7c-0.6-1-1.1-1.9-1.4-2.5l-0.5-1c-0.6-1.2-2.1-1.8-3.3-1.2c-1.2,0.6-1.8,2.1-1.2,3.3l0.5,1.1
		c0.3,0.7,0.8,1.6,1.5,2.7l1,1.7c0.3,0.5,0.7,1.1,1,1.7l0.4,0.6c0.8,1.2,1.6,2.4,2.5,3.7c0.9,1.2,1.8,2.5,2.9,3.8
		c0.8,1,1.7,1.9,2.7,3l0.3,0.3c0.7,0.7,1.2,1.3,1.7,1.8l0.7,0.7c0.2,0.2,0.4,0.3,0.7,0.4l0.1,0.6c0.1,0.7,0.3,1.3,0.4,1.9
		c0.1,0.3,0.2,0.6,0.2,0.9l0.5,2c0,0.1,0,0.1,0,0.2l0.2,0.7c0.1,0.4,0.3,0.9,0.4,1.3c0.4,1.3,0.9,2.7,1.5,4c0.1,0.3,0.2,0.6,0.4,0.9
		c0.1,0.3,0.2,0.6,0.3,0.8l-0.6-0.3c-0.4-0.2-0.8-0.5-1.2-0.7l-0.6-0.3c-0.7-0.4-1.3-0.8-2-1.3c-0.6-0.4-1.3-0.9-2-1.4
		c-1.6-1.2-2.9-2.2-3.9-3.1c-1.1-1-2.2-2-3.3-3.1c-0.8-0.8-1.4-1.5-1.9-2l-1.1-1.2c-0.9-1-2.5-1.1-3.5-0.2s-1.1,2.5-0.2,3.5l1.1,1.2
		c0.5,0.6,1.2,1.4,2.2,2.3c1.1,1.1,2.3,2.2,3.5,3.3c1.2,1,2.5,2.1,4.1,3.3c0.7,0.6,1.5,1.1,2.3,1.6c0.7,0.5,1.4,0.9,2.1,1.4l0.5,0.3
		c0.5,0.3,1,0.6,1.5,0.9l1.8,1c1.1,0.6,2,1,2.7,1.3c0.3,0.1,0.5,0.2,0.7,0.3l0.4,0.2c0.3,0.1,0.7,0.2,1,0.2c0,0,0,0,0.1,0
		c2.3,3.8,5.1,7.5,8.5,11.1c-0.9-0.2-2-0.4-3.1-0.7l-1.2-0.3c-0.6-0.1-1.2-0.3-1.7-0.4l-5.1-1.6c-0.8-0.3-1.6-0.6-2.3-0.9l-1-0.4
		c-1.3-0.5-2.5-1.1-3.5-1.6c-2.5-1.3-4.3-2.3-4.3-2.3c-1.2-0.7-2.7-0.3-3.4,0.9c-0.7,1.2-0.3,2.7,0.9,3.4c0.1,0,1.9,1.1,4.5,2.4
		c1.2,0.6,2.5,1.2,3.9,1.8l1,0.4c0.8,0.3,1.6,0.7,2.5,1l5.3,1.7c0.7,0.2,1.4,0.4,2,0.5l1.2,0.3c1.4,0.3,2.8,0.6,4,0.8
		c2.6,0.4,4.3,0.6,4.4,0.6s0.2,0,0.3,0c0.3,0,0.7-0.1,1-0.2c3.3,3,6.9,5.8,10.9,8.6l-2.1,0.1h-2.4h-1.9l-4-0.1
		c-1.7-0.1-3.5-0.2-5.2-0.4c-1.6-0.2-3.3-0.5-5.1-0.7c-1-0.1-1.8-0.3-2.6-0.5c-0.3-0.1-0.7-0.1-0.9-0.2l-1.4-0.3
		c-1.3-0.3-2.7,0.5-3,1.9c-0.3,1.3,0.5,2.7,1.9,3l1.5,0.3c0.3,0,0.5,0.1,0.8,0.2c0.8,0.2,1.8,0.4,2.9,0.6c1.7,0.3,3.5,0.5,5.2,0.7
		c1.8,0.2,3.6,0.3,5.4,0.4l6.2,0.2h2.5h0.1l2.3-0.1l4.6-0.3c0.5,0,1-0.3,1.4-0.6c3.9,2.3,7.7,4.2,11.6,5.6c0.5,0.2,0.9,0.3,1.4,0.5
		c-0.2,0.1-0.3,0.1-0.5,0.2c-3.2,1-7.1,1.9-10.8,2.4c-3.5,0.5-7.8,0.8-11.6,0.8h-3.8h-1.5c-1.4,0-2.5,1.1-2.5,2.5s1.1,2.5,2.5,2.5
		h1.5h3.8c2.4,0,7.2-0.1,12.3-0.8c3.9-0.5,8.1-1.5,11.6-2.6c1.6-0.5,2.8-0.9,3.6-1.2l1.3-0.5c0.6-0.2,1-0.6,1.3-1.2
		c2.3,0.5,4.4,1,6.4,1.3c2.1,0.4,3.9,0.8,5.6,1.2c-0.6,0.4-1.1,0.9-1.7,1.4l-0.5,0.5c-0.4,0.4-0.7,0.7-1,0.9l-0.5,0.5
		c-0.9,1-0.9,2.6,0.1,3.5c0.5,0.5,1.1,0.7,1.7,0.7c0.7,0,1.3-0.3,1.8-0.8l0.5-0.6c0.2-0.2,0.4-0.4,0.7-0.6l0.5-0.5
		c1.3-1.2,2.8-2.1,4.4-2.9c1.6,0.8,3.1,1.8,4.4,2.9l0.6,0.5c0.3,0.3,0.5,0.5,0.7,0.7l0.5,0.5c0.5,0.5,1.2,0.8,1.8,0.8
		s1.2-0.2,1.7-0.7c1-0.9,1-2.5,0.1-3.5l-0.4-0.4c-0.3-0.3-0.6-0.6-1-1l-0.6-0.6c-0.5-0.5-1.1-0.9-1.6-1.3c1.6-0.4,3.5-0.8,5.6-1.2
		c2-0.4,4.2-0.8,6.4-1.3c0.3,0.5,0.7,0.9,1.3,1.2l1.3,0.5c1.1,0.4,2.3,0.8,3.6,1.2c3.5,1.1,7.7,2,11.6,2.6c5.1,0.7,9.9,0.8,12.3,0.8
		h3.9h1.5c1.4,0,2.5-1.1,2.5-2.5s-1.1-2.5-2.5-2.5h-1.4h-3.9c-3.8,0-8.1-0.3-11.6-0.8c-3.6-0.5-7.6-1.4-10.8-2.4
		c-0.2-0.1-0.3-0.1-0.5-0.2c0.4-0.2,0.9-0.3,1.3-0.5c3.9-1.4,7.8-3.3,11.6-5.6c0.4,0.3,0.9,0.5,1.4,0.6l6.9,0.4h0.1h2.6h2l4.2-0.1
		c1.8-0.1,3.7-0.2,5.5-0.4c1.7-0.2,3.4-0.5,5.1-0.7c1.2-0.2,2.1-0.4,2.9-0.6c0.3-0.1,0.6-0.1,0.9-0.2l1.4-0.3c1.3-0.3,2.2-1.6,1.9-3
		c-0.3-1.3-1.6-2.2-3-1.9l-1.3,0.3c-0.3,0.1-0.6,0.1-1,0.2c-0.8,0.2-1.6,0.4-2.6,0.5c-1.7,0.3-3.4,0.5-5,0.7
		c-1.6,0.2-3.4,0.3-5.2,0.4l-5.9,0.2h-1.6l-3-0.1c4-2.8,7.6-5.6,10.9-8.6c0.3,0.1,0.6,0.2,1,0.2c0.1,0,0.2,0,0.3,0s1.7-0.2,4.4-0.6
		c1.2-0.2,2.6-0.5,4-0.8l1.2-0.3c0.7-0.2,1.4-0.3,2.1-0.5l2.7-0.8l2.8-0.9c0.9-0.3,1.7-0.7,2.5-1l0.9-0.4c1.4-0.6,2.8-1.2,3.9-1.8
		c2.6-1.3,4.4-2.4,4.5-2.4c1.2-0.7,1.6-2.2,0.9-3.4c-0.7-1.2-2.2-1.6-3.4-0.9c0,0-1.8,1-4.4,2.3c-1,0.5-2.2,1-3.5,1.6l-0.9,0.4
		c-0.8,0.3-1.6,0.6-2.3,0.9l-5.2,1.6c-0.6,0.2-1.2,0.3-1.7,0.4l-1.2,0.3c-1.2,0.3-2.2,0.5-3.1,0.7c3.3-3.6,6.2-7.3,8.5-11.1
		c0,0,0,0,0.1,0c0.3,0,0.6-0.1,1-0.2l0.4-0.2c0.2-0.1,0.5-0.2,0.7-0.3c0.6-0.3,1.6-0.8,2.7-1.4l1.8-1c0.5-0.3,1-0.6,1.5-0.9l0.6-0.4
		c0.7-0.4,1.4-0.9,2.1-1.4c0.7-0.5,1.5-1,2.3-1.6c1.6-1.3,3-2.3,4.2-3.4c1.1-1,2.3-2.1,3.4-3.2c1-0.9,1.7-1.7,2.2-2.3l1-1.2
		C82,411.8,81.9,410.2,80.9,409.3z"/>
</symbol>
<symbol viewBox="-111.4 295.9 197.7 200.2" id="icon-trophy_3">
	<title>trophy_3</title>
	<g>
		<path d="M73.1,421.5l12.6-15.7c0.6-0.8,0.7-1.8,0.3-2.6c-0.4-0.9-1.3-1.4-2.3-1.4H45.8c5.4-20,7.8-43.1,7.2-68.6
			c0-1.2-0.9-2.2-2-2.4c-21.3-4.2-43.2-13.4-63.7-22.6c-0.7-0.3-1.4-0.3-2.1,0c-22,10.3-44.5,20.1-60.5,21.3
			c-1.2,0.1-2.2,1.1-2.3,2.3c-2,25.7,0,49.2,5.7,70h-37c-1,0-1.8,0.6-2.3,1.4c-0.4,0.9-0.3,1.9,0.3,2.6l12.6,15.7l-12.6,15.2
			c-0.6,0.7-0.7,1.8-0.3,2.7s1.3,1.4,2.3,1.4H-92v13.8c0,0.8,0.4,1.6,1,2c0.4,0.3,0.9,0.5,1.5,0.5c0.3,0,0.5,0,0.8-0.1
			c12.5-4.1,25.5-7.1,38.6-9.2c9.5,13.3,21.5,25.3,35.8,35.7c0.4,0.3,1,0.5,1.5,0.5s1-0.1,1.4-0.4c14.6-9.6,26.9-21.7,36.6-35.8
			c13.1,2,26,5.1,38.5,9.2c0.8,0.2,1.6,0.1,2.2-0.4c0.6-0.5,1-1.2,1-2v-13.8h16.8c1,0,1.8-0.6,2.3-1.4s0.3-1.9-0.3-2.7L73.1,421.5z
			 M43.5,409.8l1.8,1c-0.7-0.2-1.3-0.3-2-0.5C43.3,410.2,43.4,410,43.5,409.8z M-72.6,334.2c15.3-1.7,34.8-9.7,59-21.1
			c19.8,8.9,40.9,17.6,61.7,22c0.4,25.6-2.3,48.6-8,68.4l0,0l0,0c-0.2,0.6-0.3,1.2-0.5,1.8c-0.3,0.9-0.5,1.7-0.8,2.6
			c-0.1,0.2-0.1,0.5-0.2,0.7c-0.1,0.2-0.1,0.4-0.2,0.6c-0.8-0.2-1.6-0.3-2.4-0.5c-1-0.2-2-0.4-2.9-0.6c-1.2-0.2-2.4-0.4-3.6-0.6
			c-1-0.2-1.9-0.3-2.9-0.5c-1.2-0.2-2.5-0.4-3.7-0.5c-0.9-0.1-1.8-0.3-2.8-0.4c-1.3-0.2-2.6-0.3-3.9-0.5c-0.9-0.1-1.7-0.2-2.6-0.3
			c-1.4-0.1-2.8-0.3-4.2-0.4c-0.8-0.1-1.6-0.1-2.4-0.2c-1.5-0.1-3.1-0.2-4.6-0.3c-0.6,0-1.3-0.1-1.9-0.1c-1.9-0.1-3.7-0.2-5.6-0.2
			c-0.3,0-0.6,0-1,0c-4.5-0.1-8.9-0.1-13.4,0c-0.3,0-0.5,0-0.8,0c-1.9,0.1-3.9,0.1-5.8,0.2c-0.6,0-1.2,0.1-1.8,0.1
			c-1.6,0.1-3.2,0.2-4.8,0.3c-0.7,0.1-1.5,0.1-2.2,0.2c-1.4,0.1-2.9,0.3-4.3,0.4c-0.8,0.1-1.7,0.2-2.5,0.3c-1.3,0.2-2.7,0.3-4,0.5
			c-0.9,0.1-1.8,0.3-2.7,0.4c-1.3,0.2-2.5,0.4-3.8,0.6c-0.9,0.2-1.9,0.3-2.8,0.5c-1.2,0.2-2.4,0.4-3.7,0.6c-1,0.2-2,0.4-2.9,0.6
			c-0.8,0.2-1.6,0.3-2.4,0.5c0-0.1-0.1-0.2-0.1-0.3c-0.1-0.4-0.3-0.8-0.4-1.3c0-0.1-0.1-0.3-0.1-0.4c-0.2-0.6-0.4-1.2-0.6-1.8l0,0
			l0,0l0,0l-0.1-0.4c-0.2-0.6-0.4-1.1-0.5-1.7l0,0C-72.2,383-74.4,359.7-72.6,334.2z M-69.2,410.1c0,0.1,0.1,0.3,0.1,0.4
			c-0.5,0.1-1,0.2-1.5,0.4L-69.2,410.1z M-103.6,435.7l10.5-12.7c0.8-0.9,0.8-2.2,0-3.2l-10.6-13.2h30.3l-17.4,9.9
			c-0.1,0.1-0.2,0.1-0.3,0.2l0,0c-0.1,0.1-0.2,0.2-0.2,0.2s0,0.1-0.1,0.1c-0.1,0.1-0.1,0.1-0.2,0.2c0,0,0,0.1-0.1,0.1
			c0,0.1-0.1,0.1-0.1,0.2s0,0.1-0.1,0.2c0,0.1-0.1,0.1-0.1,0.2s0,0.1,0,0.2c0,0.1,0,0.1,0,0.2s0,0.2,0,0.2c0,0.1,0,0.1,0,0.2
			s0,0.2,0,0.2c0,0.1,0,0.1,0,0.2v16.4h-11.6V435.7z M-12.8,478.4c-12.5-9.3-23.1-19.8-31.7-31.4c0.1,0,0.1,0,0.2,0
			c0.5-0.1,1.1-0.1,1.6-0.2c0.9-0.1,1.7-0.2,2.6-0.3c0.6-0.1,1.3-0.1,1.9-0.2c0.7-0.1,1.5-0.2,2.2-0.2c0.7-0.1,1.5-0.1,2.2-0.2
			c0.6-0.1,1.3-0.1,1.9-0.2c0.8-0.1,1.7-0.1,2.5-0.2c0.5,0,1-0.1,1.5-0.1c1-0.1,1.9-0.1,2.9-0.2c0.3,0,0.6,0,0.9,0
			c7.6-0.3,15.3-0.3,22.9,0c0.3,0,0.6,0,0.9,0c1,0,1.9,0.1,2.9,0.2c0.5,0,1,0.1,1.6,0.1c0.8,0.1,1.6,0.1,2.4,0.2
			c0.7,0.1,1.3,0.1,2,0.2c0.7,0.1,1.4,0.1,2.1,0.2c0.8,0.1,1.6,0.2,2.4,0.2c0.6,0.1,1.2,0.1,1.8,0.2c1,0.1,1.9,0.2,2.9,0.3
			c0.5,0.1,0.9,0.1,1.4,0.2c0.1,0,0.2,0,0.3,0C10.9,459.2,0,469.7-12.8,478.4z M61.9,451.1c-12.2-3.8-24.9-6.7-37.6-8.5
			c-12.2-1.8-24.6-2.7-36.9-2.7c-1.5,0-3.1,0-4.6,0c-10.8,0.2-21.6,1.1-32.2,2.7l0,0c-12.8,1.9-25.4,4.8-37.7,8.6v-12.9v-17.6
			c0.8-0.3,1.6-0.5,2.4-0.7c0.8-0.2,1.6-0.5,2.3-0.7c1.1-0.3,2.3-0.7,3.4-1c0.7-0.2,1.5-0.4,2.2-0.6c1.3-0.3,2.6-0.7,3.9-1
			c0.6-0.2,1.2-0.3,1.8-0.5c1.9-0.5,3.8-0.9,5.7-1.3c34.3-7.5,70.4-7.6,104.7-0.1c2,0.4,3.9,0.9,5.9,1.3c0.6,0.2,1.3,0.3,1.9,0.5
			c1.3,0.3,2.6,0.7,4,1c0.7,0.2,1.4,0.4,2.2,0.6c1.2,0.3,2.5,0.7,3.7,1c0.8,0.2,1.5,0.5,2.3,0.7c0.9,0.3,1.7,0.5,2.6,0.8v17.6
			L61.9,451.1L61.9,451.1z M66.9,435.7v-17c0-0.2,0-0.4-0.1-0.6V418c-0.1-0.2-0.1-0.4-0.2-0.5c0,0,0-0.1-0.1-0.1
			c-0.1-0.2-0.2-0.3-0.4-0.5l0,0c0,0,0,0-0.1-0.1l0,0c-0.1-0.1-0.2-0.1-0.3-0.2c0,0,0,0-0.1,0l-17.4-9.9h30.3l-10.6,13.2
			c-0.7,0.9-0.7,2.2,0,3.2l10.5,12.7H66.9V435.7z"/>
		<path d="M-29.7,373.4l-3.2,18.7c-0.2,0.9,0.2,1.9,1,2.4c0.2,0.1,0.4,0.2,0.6,0.3h0.1c0.2,0.1,0.4,0.1,0.6,0.1h0.1h0.1
			c0.1,0,0.2,0,0.3,0s0.1,0,0.2,0c0.2,0,0.4-0.1,0.6-0.2l16.8-8.8l16.8,8.8c0.2,0.1,0.4,0.2,0.6,0.2c0.1,0,0.1,0,0.2,0
			c0.1,0,0.2,0,0.3,0l0,0h0.1h0.1c0.2,0,0.4-0.1,0.5-0.1l0,0c1-0.3,1.7-1.3,1.7-2.3c0-0.3,0-0.5-0.1-0.7l-3.2-18.4l13.6-13.2
			c0.7-0.7,0.9-1.7,0.6-2.6c-0.3-0.9-1.1-1.6-2-1.7L-2,353.2l-8.4-17c-0.4-0.9-1.3-1.4-2.2-1.4s-1.8,0.5-2.2,1.4l-8.4,17l-18.7,2.7
			c-0.9,0.1-1.7,0.8-2,1.7s0,1.9,0.6,2.6L-29.7,373.4z M-21.1,358c0.8-0.1,1.5-0.6,1.9-1.4l6.7-13.6l6.7,13.6
			c0.4,0.7,1.1,1.2,1.9,1.4l15,2.2L0.2,370.8c-0.6,0.6-0.9,1.4-0.7,2.2l2.6,15l-13.4-7.1c-0.7-0.4-1.6-0.4-2.3,0L-27,388l2.6-15
			c0.1-0.8-0.1-1.6-0.7-2.2L-36,360.2L-21.1,358z"/>
	</g>
</symbol>
<symbol viewBox="-111.4 295.9 197.7 200.2" id="icon-trophy_4">
	<title>trophy_4</title>
	<g>
		<path d="M33.5,295.9h-92.1c-8.8,0-16,7.2-16,16v129.7c0,8.8,7.2,16,16,16H-15c0.1,0.1,0.2,0.3,0.3,0.4l-10.6,26.9
			c-0.3,0.9-0.2,1.8,0.4,2.5c0.6,0.7,1.5,1,2.4,0.8l11.1-2.3l6.2,9.1c0.5,0.7,1.2,1.1,2.1,1.1c0.1,0,0.2,0,0.3,0
			c0.9-0.1,1.7-0.7,2-1.6l9.1-23.1l9.1,23.1c0.3,0.9,1.1,1.5,2,1.6c0.1,0,0.2,0,0.3,0c0.8,0,1.6-0.4,2.1-1.1l6.2-9.1l11.1,2.3
			c0.9,0.2,1.8-0.1,2.4-0.8c0.6-0.7,0.7-1.7,0.4-2.5l-10.6-26.8c0.1-0.1,0.2-0.2,0.3-0.4h1.9c8.8,0,16-7.2,16-16V312
			C49.5,303.1,42.3,295.9,33.5,295.9z M26.5,456.2c-0.8,1-1.6,1.9-2.5,2.8c-4,3.7-9.1,5.9-14.6,6.2c-0.7,0-1.4,0-2.1,0
			c-6.8-0.3-13-3.6-17.2-9c-3.1-4.1-4.8-8.9-4.8-14c0-12.7,10.3-23,23-23s23,10.3,23,23C31.2,447.3,29.6,452.2,26.5,456.2z
			 M-3.8,488.4l-4.5-6.5c-0.5-0.7-1.2-1.1-2.1-1.1c-0.2,0-0.3,0-0.5,0.1l-8.3,1.7l7.9-20.1l0.1,0.1c0.5,0.4,0.9,0.8,1.4,1.2
			c0.1,0.1,0.2,0.1,0.3,0.2c0.4,0.3,0.8,0.6,1.2,0.9c0.2,0.1,0.3,0.2,0.5,0.3c0.4,0.3,0.8,0.6,1.3,0.8c0.1,0.1,0.2,0.1,0.3,0.2
			c0.5,0.3,1.1,0.6,1.6,0.9c0.1,0.1,0.3,0.1,0.4,0.2c0.4,0.2,0.9,0.4,1.3,0.6c0.2,0.1,0.3,0.1,0.5,0.2c0.6,0.2,1.2,0.5,1.7,0.6
			c0,0,0,0,0.1,0c0.6,0.2,1.2,0.4,1.7,0.5c0.2,0,0.3,0.1,0.5,0.1c0.5,0.1,0.9,0.2,1.4,0.3c0.1,0,0.2,0,0.3,0.1L-3.8,488.4z
			 M27.3,480.9c-1-0.2-2,0.2-2.6,1l-4.5,6.5l-7.3-18.6c0.1,0,0.2,0,0.3-0.1c0.5-0.1,0.9-0.2,1.4-0.3c0.2,0,0.4-0.1,0.5-0.1
			c0.6-0.1,1.1-0.3,1.7-0.5h0.1c0.6-0.2,1.2-0.4,1.7-0.6c0.2-0.1,0.3-0.1,0.5-0.2c0.4-0.2,0.9-0.4,1.3-0.6c0.2-0.1,0.3-0.1,0.5-0.2
			c0.5-0.3,1.1-0.6,1.6-0.9c0.1-0.1,0.2-0.1,0.3-0.2c0.4-0.3,0.9-0.5,1.3-0.8c0.2-0.1,0.3-0.2,0.4-0.3c0.4-0.3,0.8-0.6,1.2-0.9
			c0.1-0.1,0.2-0.1,0.3-0.2c0.5-0.4,0.9-0.8,1.4-1.2l0.1-0.1l7.9,20.1L27.3,480.9z M44.5,441.7c0,5.8-4.6,10.6-10.3,11
			c1.3-3.3,2-6.8,2-10.5c0-15.4-12.6-28-28-28s-28,12.6-28,28c0,3.7,0.7,7.2,2.1,10.5h-40.9c-6.1,0-11-5-11-11V312c0-6.1,5-11,11-11
			h92.1c6.1,0,11,5,11,11V441.7z"/>
		<path d="M8.2,427.7c-8,0-14.5,6.5-14.5,14.5s6.5,14.5,14.5,14.5s14.5-6.5,14.5-14.5S16.2,427.7,8.2,427.7z M8.2,451.6
			c-5.2,0-9.5-4.2-9.5-9.5c0-5.3,4.2-9.5,9.5-9.5c5.2,0,9.5,4.2,9.5,9.5C17.7,447.4,13.4,451.6,8.2,451.6z"/>
		<path d="M24.5,334.6h-74.3c-1.4,0-2.5,1.1-2.5,2.5c0,1.4,1.1,2.5,2.5,2.5h74.3c1.4,0,2.5-1.1,2.5-2.5
			C27,335.7,25.9,334.6,24.5,334.6z"/>
		<path d="M24.5,355.8h-74.3c-1.4,0-2.5,1.1-2.5,2.5s1.1,2.5,2.5,2.5h74.3c1.4,0,2.5-1.1,2.5-2.5S25.9,355.8,24.5,355.8
			z"/>
		<path d="M24.5,377.1h-74.3c-1.4,0-2.5,1.1-2.5,2.5s1.1,2.5,2.5,2.5h74.3c1.4,0,2.5-1.1,2.5-2.5S25.9,377.1,24.5,377.1
			z"/>
		<path d="M24.5,398.3h-74.3c-1.4,0-2.5,1.1-2.5,2.5s1.1,2.5,2.5,2.5h74.3c1.4,0,2.5-1.1,2.5-2.5S25.9,398.3,24.5,398.3
			z"/>
	</g>
</symbol>
<symbol viewBox="-111.4 295.9 197.7 200.2" id="icon-trophy_5">
	<title>trophy_5</title>
	<g>
		<path d="M77.7,331.9c-0.5-0.5-1.2-0.9-1.9-0.9H45.3H-70.2h-30.6c-0.7,0-1.4,0.3-1.9,0.9s-0.7,1.3-0.6,2
			c0,0.3,4.9,32.4,41.2,33.1c8.8,14.5,21.8,23.2,38.7,25.8v24.7h-4.8c-1.1,0-2.1,0.8-2.4,1.9l-2.8,10.9h-4.8c-1.1,0-2.1,0.8-2.4,1.9
			l-2.8,10.9h-5.2c-1.1,0-2.1,0.8-2.4,1.9l-3.3,12.8c-0.2,0.7,0,1.5,0.4,2.2c0.5,0.6,1.2,1,2,1h78.8c0.8,0,1.5-0.4,2-1
			s0.6-1.4,0.4-2.2L26,445c-0.3-1.1-1.3-1.9-2.4-1.9h-5.2l-2.8-10.9c-0.3-1.1-1.3-1.9-2.4-1.9H8.5l-2.8-10.9
			c-0.3-1.1-1.3-1.9-2.4-1.9h-4.8v-24.7c16.7-2.6,29.7-11.3,38.5-25.7c36.4-0.7,41.3-32.8,41.3-33.1
			C78.4,333.1,78.1,332.4,77.7,331.9z M54.3,344.9c0,0.1-0.1,0.2-0.1,0.2c-0.1,0.2-0.2,0.4-0.2,0.5s-0.1,0.2-0.1,0.3
			c-0.1,0.2-0.2,0.3-0.3,0.5c-0.1,0.1-0.1,0.2-0.2,0.3c-0.1,0.2-0.2,0.4-0.3,0.5s-0.1,0.2-0.2,0.3c-0.1,0.2-0.3,0.4-0.4,0.6
			c-0.1,0.1-0.1,0.2-0.2,0.3c-0.2,0.3-0.4,0.6-0.6,0.9c0,0.1-0.1,0.1-0.1,0.2c-0.2,0.2-0.4,0.5-0.6,0.7c-0.1,0.1-0.2,0.2-0.3,0.3
			c-0.2,0.2-0.3,0.4-0.5,0.5c-0.1,0.1-0.2,0.2-0.4,0.3c-0.2,0.2-0.4,0.3-0.6,0.5c-0.1,0.1-0.3,0.2-0.4,0.3c-0.2,0.2-0.4,0.3-0.6,0.5
			c-0.1,0.1-0.3,0.2-0.4,0.3c-0.3,0.2-0.5,0.3-0.8,0.5c-0.1,0.1-0.2,0.1-0.3,0.2c-0.4,0.2-0.8,0.4-1.3,0.6c-0.1,0-0.2,0.1-0.3,0.1
			c-0.4,0.2-0.7,0.3-1.1,0.4c-0.2,0.1-0.3,0.1-0.5,0.2s-0.4,0.1-0.7,0.2c0-0.1,0.1-0.3,0.1-0.4c0.3-0.7,0.5-1.3,0.7-2
			c0.1-0.3,0.2-0.6,0.3-0.8c0.2-0.6,0.4-1.1,0.6-1.7c0.1-0.3,0.2-0.6,0.3-0.9c0.2-0.6,0.4-1.3,0.5-1.9c0.1-0.2,0.1-0.4,0.2-0.7
			c0.2-0.9,0.4-1.7,0.6-2.6V344h8.5C54.5,344.4,54.4,344.6,54.3,344.9z M-68.9,354.9c-0.3-0.1-0.7-0.3-1-0.4
			c-0.1-0.1-0.3-0.1-0.4-0.2c-0.4-0.2-0.9-0.4-1.2-0.6c-0.1-0.1-0.2-0.1-0.3-0.2c-0.3-0.2-0.6-0.3-0.8-0.5c-0.1-0.1-0.3-0.2-0.4-0.3
			c-0.2-0.2-0.4-0.3-0.6-0.5c-0.1-0.1-0.3-0.2-0.4-0.3c-0.2-0.2-0.4-0.3-0.6-0.5c-0.1-0.1-0.2-0.2-0.4-0.3c-0.2-0.2-0.4-0.4-0.5-0.5
			s-0.2-0.2-0.3-0.3c-0.2-0.2-0.4-0.5-0.6-0.7c0-0.1-0.1-0.1-0.2-0.2c-0.2-0.3-0.4-0.6-0.6-0.9c-0.1-0.1-0.1-0.2-0.2-0.3
			c-0.1-0.2-0.3-0.4-0.4-0.6c-0.1-0.1-0.1-0.2-0.2-0.3c-0.1-0.2-0.2-0.4-0.3-0.5c-0.1-0.1-0.1-0.2-0.2-0.3c-0.1-0.2-0.2-0.3-0.3-0.5
			c0-0.1-0.1-0.2-0.1-0.3c-0.1-0.2-0.2-0.4-0.2-0.5s-0.1-0.2-0.1-0.2c-0.1-0.3-0.2-0.5-0.3-0.7h8.5v0.1c0.2,0.9,0.4,1.7,0.6,2.6
			c0.1,0.2,0.1,0.4,0.2,0.6c0.2,0.7,0.4,1.3,0.6,2c0.1,0.3,0.2,0.6,0.2,0.8c0.2,0.6,0.4,1.2,0.6,1.8c0.1,0.3,0.2,0.5,0.3,0.8
			c0.2,0.7,0.5,1.4,0.7,2.1c0,0.1,0.1,0.2,0.1,0.3c-0.2-0.1-0.4-0.1-0.6-0.2C-68.6,355-68.8,355-68.9,354.9z M-97.7,336h25.2
			c0,0.2,0.1,0.4,0.1,0.7v0.1c0,0.2,0,0.4,0.1,0.6c0,0.1,0,0.2,0,0.3c0,0.2,0,0.3,0.1,0.5c0,0.1,0,0.2,0.1,0.3c0,0.2,0,0.3,0.1,0.5
			c0,0.1,0,0.1,0,0.2h-10.8c-0.7,0-1.4,0.3-1.9,0.9s-0.7,1.3-0.6,2c0,0,0,0.2,0.1,0.4l0,0c0,0.1,0,0.1,0,0.2v0.1
			c0,0.1,0,0.2,0.1,0.2c0,0.1,0,0.1,0,0.2s0,0.2,0.1,0.3c0,0.1,0,0.1,0.1,0.2c0,0.1,0.1,0.2,0.1,0.3s0,0.2,0.1,0.2
			c0,0.1,0.1,0.2,0.1,0.3s0.1,0.2,0.1,0.3s0.1,0.2,0.1,0.3c0,0.1,0.1,0.2,0.1,0.3s0.1,0.2,0.1,0.3s0.1,0.2,0.1,0.4
			c0,0.1,0.1,0.2,0.1,0.3c0.1,0.1,0.1,0.3,0.2,0.4c0,0.1,0.1,0.2,0.2,0.4c0.1,0.1,0.1,0.3,0.2,0.4s0.1,0.2,0.2,0.4
			c0.1,0.1,0.1,0.3,0.2,0.4s0.1,0.3,0.2,0.4s0.1,0.3,0.2,0.4s0.1,0.3,0.2,0.4s0.2,0.3,0.3,0.4c0.1,0.1,0.2,0.3,0.2,0.4
			c0.1,0.1,0.2,0.3,0.3,0.4c0.1,0.1,0.2,0.3,0.3,0.4c0.1,0.1,0.2,0.3,0.3,0.4c0.1,0.1,0.2,0.3,0.3,0.4c0.1,0.1,0.2,0.3,0.3,0.4
			c0.1,0.1,0.2,0.3,0.3,0.4c0.1,0.1,0.2,0.3,0.4,0.4c0.1,0.1,0.2,0.3,0.3,0.4c0.1,0.1,0.3,0.3,0.4,0.4s0.2,0.3,0.4,0.4
			c0.1,0.1,0.3,0.3,0.4,0.4s0.3,0.2,0.4,0.4c0.2,0.1,0.3,0.3,0.5,0.4c0.1,0.1,0.3,0.2,0.4,0.4c0.2,0.1,0.3,0.3,0.5,0.4
			s0.3,0.2,0.5,0.3s0.4,0.2,0.5,0.4c0.2,0.1,0.3,0.2,0.5,0.3s0.4,0.2,0.6,0.3c0.2,0.1,0.4,0.2,0.5,0.3c0.2,0.1,0.4,0.2,0.6,0.3
			c0.2,0.1,0.4,0.2,0.6,0.3s0.4,0.2,0.6,0.3c0.2,0.1,0.4,0.2,0.6,0.3c0.2,0.1,0.5,0.2,0.7,0.3c0.2,0.1,0.4,0.2,0.7,0.2
			c0.2,0.1,0.5,0.2,0.7,0.2c0.2,0.1,0.5,0.1,0.7,0.2c0.2,0.1,0.5,0.1,0.8,0.2c0.3,0.1,0.5,0.1,0.8,0.2c0.3,0.1,0.5,0.1,0.8,0.1
			c0.3,0,0.5,0.1,0.8,0.1h0.1c0.2,0.3,0.3,0.6,0.5,1C-88.8,360.1-95.8,342.9-97.7,336z M-4.4,388.1c-1.3,0.2-2.2,1.2-2.2,2.5V420
			c0,1.4,1.1,2.5,2.5,2.5h5.4l2.8,10.9c0.3,1.1,1.3,1.9,2.4,1.9h4.8l2.8,10.9c0.3,1.1,1.3,1.9,2.4,1.9h5.2l2,7.8h-72.3l2-7.8h5.2
			c1.1,0,2.1-0.8,2.4-1.9l2.8-10.9h4.8c1.1,0,2.1-0.8,2.4-1.9l2.8-10.9h5.4c1.4,0,2.5-1.1,2.5-2.5v-29.4c0-1.3-0.9-2.3-2.2-2.5
			c-16.8-2-29.6-10.4-38-25.1c-1-1.8-1.9-3.6-2.8-5.4c-2.3-5.1-4.1-10.6-5.2-16.4l0,0c-0.1-0.5-0.2-0.9-0.3-1.4c0-0.1,0-0.1,0-0.2
			c-0.1-0.4-0.1-0.8-0.2-1.2c0-0.1,0-0.1,0-0.2c-0.1-0.4-0.1-0.7-0.2-1c0-0.1,0-0.1,0-0.2c0-0.3-0.1-0.6-0.1-0.9l0,0H42.5
			c-0.1,0.6-0.2,1.4-0.3,2.2v0.1c-0.1,0.4-0.1,0.8-0.2,1.2c0,0.1,0,0.1,0,0.2c-0.1,0.4-0.2,0.9-0.3,1.4c-1.2,5.8-3,11.3-5.3,16.4
			c-0.8,1.7-1.7,3.5-2.6,5.1l0,0C25.3,377.5,12.5,386-4.4,388.1z M39.8,361.9c0.2-0.3,0.3-0.6,0.5-1h0.1c0.3,0,0.5-0.1,0.8-0.1
			s0.6-0.1,0.8-0.1c0.3-0.1,0.5-0.1,0.7-0.2c0.3-0.1,0.5-0.1,0.8-0.2c0.2-0.1,0.5-0.1,0.7-0.2s0.5-0.1,0.7-0.2s0.4-0.2,0.7-0.2
			c0.2-0.1,0.5-0.2,0.7-0.3s0.4-0.2,0.6-0.3c0.2-0.1,0.4-0.2,0.6-0.3c0.2-0.1,0.4-0.2,0.6-0.3c0.2-0.1,0.4-0.2,0.6-0.3
			c0.2-0.1,0.4-0.2,0.6-0.3c0.2-0.1,0.4-0.2,0.6-0.3c0.2-0.1,0.4-0.2,0.5-0.3c0.2-0.1,0.4-0.2,0.5-0.4c0.2-0.1,0.3-0.2,0.5-0.4
			c0.2-0.1,0.3-0.3,0.5-0.4s0.3-0.2,0.5-0.4c0.2-0.1,0.3-0.3,0.5-0.4c0.1-0.1,0.3-0.3,0.4-0.4c0.1-0.1,0.3-0.3,0.4-0.4
			c0.1-0.1,0.3-0.3,0.4-0.4c0.1-0.1,0.3-0.3,0.4-0.4c0.1-0.1,0.2-0.3,0.4-0.4c0.1-0.1,0.2-0.3,0.4-0.4c0.1-0.1,0.2-0.3,0.3-0.4
			s0.2-0.3,0.3-0.4s0.2-0.3,0.3-0.4s0.2-0.3,0.3-0.4c0.1-0.1,0.2-0.3,0.3-0.4s0.2-0.3,0.3-0.4s0.2-0.3,0.3-0.4s0.2-0.3,0.2-0.4
			c0.1-0.1,0.2-0.3,0.2-0.4c0.1-0.1,0.1-0.3,0.2-0.4s0.1-0.3,0.2-0.4s0.1-0.3,0.2-0.4s0.1-0.3,0.2-0.4s0.1-0.3,0.2-0.4
			s0.1-0.3,0.2-0.4s0.1-0.2,0.1-0.4c0-0.1,0.1-0.2,0.1-0.4c0-0.1,0.1-0.2,0.1-0.3s0.1-0.2,0.1-0.3s0.1-0.2,0.1-0.3s0.1-0.2,0.1-0.3
			c0-0.1,0.1-0.2,0.1-0.3s0.1-0.2,0.1-0.3s0-0.2,0.1-0.2c0-0.1,0.1-0.2,0.1-0.3s0-0.1,0.1-0.2c0-0.1,0-0.2,0.1-0.3
			c0-0.1,0-0.1,0-0.2s0-0.2,0.1-0.2v-0.1c0-0.1,0-0.1,0-0.2v-0.1c0-0.1,0-0.1,0-0.2l0,0c0-0.1,0-0.2,0-0.2c0.1-0.7-0.1-1.4-0.6-2
			s-1.2-0.9-1.9-0.9H47c0-0.1,0-0.2,0-0.2c0-0.1,0-0.3,0.1-0.4c0-0.1,0-0.3,0.1-0.4c0-0.1,0-0.3,0.1-0.4c0-0.1,0-0.2,0.1-0.4
			c0-0.1,0-0.2,0-0.3c0-0.3,0.1-0.7,0.1-1h25.2C70.8,343,63.7,360.2,39.8,361.9z"/>
		<path d="M-28.9,372.3c-1.4-1-2.7-2-4-3.1c-1.1-0.9-2.6-0.7-3.5,0.3c-0.9,1.1-0.7,2.6,0.3,3.5c1.4,1.1,2.8,2.3,4.3,3.3
			c0.4,0.3,0.9,0.5,1.5,0.5c0.8,0,1.5-0.4,2-1C-27.5,374.7-27.8,373.1-28.9,372.3z"/>
		<path d="M-50.2,344c-0.4-1.3-1.8-2.1-3.1-1.7s-2.1,1.8-1.7,3.1c1.2,4.2,4.5,12.6,12.1,21.2c0.5,0.6,1.2,0.8,1.9,0.8
			c0.6,0,1.2-0.2,1.7-0.6c1-0.9,1.1-2.5,0.2-3.5C-46.1,355.4-49.1,347.8-50.2,344z"/>
		<path d="M-23.8,432.9c0,1.4,1.1,2.5,2.5,2.5h17.6c1.4,0,2.5-1.1,2.5-2.5s-1.1-2.5-2.5-2.5h-17.6
			C-22.7,430.4-23.8,431.5-23.8,432.9z"/>
		<path d="M-33.5,445.5c0,1.4,1.1,2.5,2.5,2.5H6c1.4,0,2.5-1.1,2.5-2.5S7.4,443,6,443h-37
			C-32.4,443-33.5,444.1-33.5,445.5z"/>
	</g>
</symbol>
<symbol viewBox="-111.4 295.9 197.7 200.2" id="icon-trophy_6">
	<title>trophy_6</title>
	<g>
		<path d="M65.9,375.1c-1-1.4-2.6-2.2-4.5-2.2c-2.1,0-4.7,1-7.5,2.8l-36.4,24l-21.7-53.6c-2.8-6.8-6.5-7.8-8.4-7.8
			c-2,0-5.7,1-8.4,7.8l-21.7,53.6l-36.4-24c-2.9-1.9-5.4-2.8-7.5-2.8c-1.9,0-3.5,0.8-4.5,2.2c-1.6,2.2-1.6,5.5-0.1,10l15,44.9
			c0,0,0,0,0,0.1v10.5c0,7.3,8.3,13,18.8,13H32c10.5,0,18.8-5.7,18.8-13V431v-0.1l15.3-45.8C67.5,380.6,67.5,377.3,65.9,375.1z
			 M45.7,440.6c0,4.3-6.3,8-13.8,8h-89.4c-7.5,0-13.8-3.7-13.8-8v-8h117V440.6z M61.3,383.5l-14.8,44.1H-71.9l-14.8-44.1
			c-1.1-3.4-0.9-5.1-0.6-5.5c0.1-0.1,0.2-0.1,0.5-0.1c0.5,0,2,0.2,4.8,2l38.9,25.7c0.6,0.4,1.4,0.5,2.1,0.3c0.7-0.2,1.3-0.8,1.6-1.4
			l22.9-56.4c1.3-3.2,2.9-4.7,3.8-4.7c0.9,0,2.5,1.5,3.8,4.7L14,404.5c0.3,0.7,0.9,1.2,1.6,1.4c0.7,0.2,1.5,0.1,2.1-0.3l38.9-25.7
			c2.8-1.8,4.2-2,4.8-2c0.3,0,0.4,0,0.5,0.1C62.1,378.4,62.4,380.1,61.3,383.5z"/>
		<path d="M-12.9,389.1c-7.3,0-13.3,5.9-13.3,13.2c0,7.3,5.9,13.2,13.3,13.2c7.3,0,13.2-5.9,13.2-13.2
			S-5.6,389.1-12.9,389.1z M-12.9,410.6c-4.5,0-8.3-3.7-8.3-8.2s3.7-8.2,8.3-8.2c4.5,0,8.2,3.7,8.2,8.2S-8.3,410.6-12.9,410.6z"/>
		<path d="M-57.8,384L-57.8,384c1.4,0,2.5-1.1,2.6-2.4l0.4-10.2c0.1-1.7,0.6-2.7,1-2.9c0.6-0.2,1.8,0.1,3.4,1.5l8.2,7
			c1,0.9,2.6,0.8,3.5-0.3c0.9-1,0.8-2.6-0.3-3.5l-8.2-7c-4.1-3.5-7.2-2.9-8.7-2.3c-1.4,0.6-3.8,2.4-4,7.3l-0.4,10.2
			C-60.3,382.8-59.2,384-57.8,384z"/>
		<path d="M17.5,377l8.2-7c1.6-1.4,2.9-1.7,3.4-1.5s1,1.2,1,2.9l0.4,10.2c0.1,1.3,1.2,2.4,2.5,2.4h0.1
			c1.4-0.1,2.5-1.2,2.4-2.6l-0.4-10.2c-0.2-4.9-2.6-6.7-4-7.3c-1.5-0.7-4.6-1.2-8.7,2.3l-8.2,7c-1,0.9-1.2,2.5-0.3,3.5
			C14.9,377.8,16.4,377.9,17.5,377z"/>
	</g>
</symbol>
<symbol viewBox="-111.4 295.9 197.7 200.2" id="icon-trophy_7">
	<title>trophy_7</title>
	<g>
		<path d="M-61.9,388.8h-13.3c-1,0-2,0.6-2,2s1,2,2,2h13.7v9.5h-11.2c-3,0-4.5,1.5-4.5,4.5v13h17.7c1,0,2-0.6,2-2
			s-1-2-2-2h-13.7v-9.5h11.3c1.3,0,2.2-0.2,3.2-1.1c1.1-1,1.2-2.1,1.2-3.6v-8.2c0-1.4-0.1-2.5-1.2-3.6
			C-59.7,389-60.6,388.8-61.9,388.8z"/>
		<path d="M35.5,425.2c-1,0-2,0.6-2,2s1,2,2,2h13.7c2.3,0,4-1.7,4-4v-7.7c0-1.6-0.3-2.8-1.6-3.9
			c1.2-1.1,1.6-2.3,1.6-3.9v-7.6c0-2.3-1.7-4-4-4H35.5c-1,0-2,0.6-2,2s1,2,2,2h13.7v6.6c0,2.2-0.9,2.9-2,2.9H35.5c-1,0-2,0.6-2,2
			s1,2,2,2h11.7c1.1,0,2,0.7,2,2.9v6.6H35.5V425.2z"/>
		<path d="M85.8,450.7c-0.2-6-5.7-13.2-12.2-13.9v-40.2c0-7.3-6-13.3-13.3-13.3H18.2v-31.5c0-7.3-6-13.3-13.3-13.3
			h-33.8c-7.3,0-13.3,6-13.3,13.3v12.1h-42c-7.3,0-13.3,6-13.3,13.3v59.5l0,0c-7.2,0-13.3,7.9-13.3,14.3c0,1.4,1.1,2.5,2.5,2.5H83.3
			l0,0c1.4,0,2.5-1.1,2.5-2.5C85.8,451,85.8,450.8,85.8,450.7z M60.3,388.4c4.6,0,8.3,3.7,8.3,8.3v40.1H18.2v-48.4H60.3L60.3,388.4z
			 M-37.1,351.9c0-4.6,3.7-8.3,8.3-8.3H5c4.6,0,8.3,3.7,8.3,8.3v34v50.9h-50.4v-70.3C-37.1,366.5-37.1,351.9-37.1,351.9z
			 M-92.5,377.3c0-4.6,3.7-8.3,8.3-8.3h42.1v67.8h-50.4V377.3z M-105.3,448.6c1.2-3.3,4.3-6.8,7.8-6.8h2.5h55.4h55.4h55.4h1.4
			c3.5,0,6.6,3.5,7.8,6.8H-105.3z"/>
		<path d="M-19.8,401.7c-1,0-2,0.6-2,2s1,2,2,2h9.9h1.5H-4c1,0,2-0.6,2-2s-1-2-2-2h-4h-1.9v-27.1h-9.9c-1,0-2,0.6-2,2
			s1,2,2,2h5.9v23.1H-19.8z"/>
	</g>
</symbol>
<symbol viewBox="-111.4 295.9 197.7 200.2" id="icon-trophy_8">
	<title>trophy_8</title>
	<g>
		<path d="M-24.7,468.7h24.1c1.4,0,2.5-1.1,2.5-2.5v-15.8c0-1.4-1.1-2.5-2.5-2.5h-24.1c-1.4,0-2.5,1.1-2.5,2.5v15.8
			C-27.2,467.6-26,468.7-24.7,468.7z M-22.2,452.9h19.1v10.8h-19.1V452.9z"/>
		<path d="M50.1,345c-0.3-0.9-1.1-1.6-2-1.7l-40.4-5.9l-18-36.6c-0.4-0.9-1.3-1.4-2.2-1.4c-1,0-1.8,0.5-2.2,1.4
			l-18,36.6l-40.4,5.9c-0.9,0.1-1.7,0.8-2,1.7s0,1.9,0.6,2.6l29.2,28.5l-6.9,40.2c-0.2,0.9,0.2,1.9,1,2.4c0.4,0.3,1,0.5,1.5,0.5
			c0.4,0,0.8-0.1,1.2-0.3l33.6-17.7v30.4h-12.3c-7.2,0-13.1,5.9-13.1,13.1v33.6h-7.6c-1.4,0-2.5,1.1-2.5,2.5v9.3
			c0,1.4,1.1,2.5,2.5,2.5h71.2c1.4,0,2.5-1.1,2.5-2.5v-9.3c0-1.4-1.1-2.5-2.5-2.5h-7.6v-33.6c0-7.2-5.9-13.1-13.1-13.1H-9.7v-30.4
			l33.6,17.7c0.8,0.4,1.9,0.4,2.6-0.2c0.8-0.6,1.2-1.5,1-2.4l-6.9-40.2l29.2-28.5C50.1,346.9,50.4,345.9,50.1,345z M20.5,487.7
			h-66.2v-4.3h7.6h50.9h7.6L20.5,487.7L20.5,487.7z M10.3,444.7v33.6h-45.9v-33.6c0-4.5,3.6-8.1,8.1-8.1H2.2
			C6.7,436.6,10.3,440.3,10.3,444.7z M-12.6,307.6l15.7,31.9l-15.7,22.6l-15.7-22.6L-12.6,307.6z M-67.5,347.5l35.1-5.1l15.8,22.7
			l-25.4,7.3L-67.5,347.5z M-40.5,377.1l25.4-7.3v25.8l-31.4,16.5L-40.5,377.1z M21.3,412.1l-31.4-16.5v-25.8l25.4,7.3L21.3,412.1z
			 M16.8,372.4l-25.4-7.3l15.8-22.6l35.1,5.1L16.8,372.4z"/>
	</g>
</symbol>
<symbol viewBox="-111.4 295.9 197.7 200.2" id="icon-trophy_9">
	<title>trophy_9</title>
	<g>
		<path d="M53.9,474.6l-24.3-61.8c2.1-0.1,3.6-0.6,4.7-1.7c2.3-2.3,1.8-5.9,1.3-9.5c-0.2-1.8-0.6-4.5-0.1-5.2
			s3.1-1.4,4.8-1.9c3.5-0.9,7-1.8,8.3-4.9c1.2-3-0.6-6.1-2.4-9.2c-0.9-1.6-2.3-3.9-2.1-4.9c0.2-0.8,2.3-2.5,3.7-3.5
			c2.7-2.1,5.8-4.4,5.8-7.8s-3.1-5.7-5.8-7.8c-1.4-1.1-3.5-2.7-3.7-3.5c-0.2-0.9,1.2-3.3,2.1-4.9c1.8-3,3.6-6.2,2.4-9.2
			c-1.3-3-4.8-4-8.3-4.9c-1.7-0.5-4.3-1.1-4.8-1.9s-0.1-3.5,0.1-5.2c0.5-3.5,1-7.2-1.3-9.5c-1.2-1.2-2.8-1.7-5.1-1.7
			c-1.4,0-2.9,0.2-4.3,0.4c-1.3,0.2-2.6,0.4-3.7,0.4s-1.5-0.2-1.6-0.3c-0.7-0.5-1.4-3.1-1.9-4.8c-0.9-3.5-1.8-7-4.9-8.3
			c-0.6-0.3-1.3-0.4-2.1-0.4c-2.4,0-4.8,1.4-7.1,2.8c-1.6,0.9-3.6,2.1-4.7,2.1h-0.1c-0.8-0.2-2.5-2.3-3.5-3.7
			c-2.1-2.7-4.4-5.8-7.8-5.8s-5.7,3.1-7.8,5.8c-1.1,1.4-2.7,3.5-3.5,3.7h-0.1c-1.1,0-3.1-1.2-4.7-2.1c-2.3-1.4-4.8-2.8-7.1-2.8
			c-0.7,0-1.4,0.1-2.1,0.4c-3,1.3-4,4.8-4.9,8.3c-0.5,1.7-1.1,4.3-1.9,4.8c-0.1,0.1-0.5,0.3-1.6,0.3s-2.3-0.2-3.7-0.4
			c-1.4-0.2-2.9-0.4-4.3-0.4c-2.3,0-4,0.6-5.1,1.7c-2.3,2.3-1.8,6-1.3,9.5c0.2,1.8,0.6,4.5,0.1,5.2s-3.1,1.4-4.8,1.9
			c-3.5,0.9-7,1.8-8.3,4.9c-1.2,3,0.6,6.1,2.4,9.2c0.9,1.6,2.3,3.9,2.1,4.9c-0.2,0.8-2.3,2.5-3.7,3.5c-2.7,2.1-5.8,4.4-5.8,7.8
			s3.1,5.7,5.8,7.8c1.4,1.1,3.5,2.7,3.7,3.5c0.2,0.9-1.2,3.3-2.1,4.9c-1.8,3-3.6,6.2-2.4,9.2c1.3,3,4.8,4,8.3,4.9
			c1.7,0.5,4.3,1.1,4.8,1.9s0.1,3.5-0.1,5.2c-0.5,3.5-1,7.2,1.3,9.5c1.1,1.1,2.7,1.7,4.7,1.7l-24.3,61.8c-0.3,0.9-0.2,1.8,0.4,2.5
			s1.5,1,2.4,0.8l24.5-5l13.6,20c0.5,0.7,1.2,1.1,2.1,1.1c0.1,0,0.2,0,0.3,0c0.9-0.1,1.7-0.7,2-1.6l21.1-53.4l21.1,53.4
			c0.3,0.9,1.1,1.5,2,1.6c0.1,0,0.2,0,0.3,0c0.8,0,1.6-0.4,2.1-1.1l13.6-20l24.5,5c0.9,0.2,1.8-0.1,2.4-0.8
			C54.1,476.4,54.2,475.5,53.9,474.6z M-55.7,402.3c0.4-3.1,0.9-6.4-0.7-8.7c-1.6-2.3-4.7-3.1-7.7-3.9c-1.6-0.4-4.6-1.2-4.9-2
			c-0.3-0.7,1.3-3.4,2.1-4.8c1.6-2.7,3.3-5.6,2.7-8.4c-0.5-2.7-3.1-4.7-5.6-6.5c-1.3-1-3.8-2.9-3.8-3.8s2.5-2.8,3.8-3.8
			c2.5-1.9,5-3.8,5.6-6.5c0.6-2.8-1.1-5.6-2.7-8.4c-0.8-1.3-2.4-4.1-2.1-4.8c0.3-0.8,3.3-1.5,4.9-2c3-0.8,6.2-1.6,7.7-3.9
			c1.6-2.3,1.1-5.6,0.7-8.7c-0.2-1.5-0.6-4.7-0.1-5.3c0,0,0.3-0.3,1.6-0.3c1.1,0,2.3,0.2,3.7,0.4c1.4,0.2,2.9,0.4,4.3,0.4
			c1.8,0,3.2-0.4,4.4-1.1c2.3-1.6,3.1-4.7,3.9-7.7c0.4-1.6,1.2-4.6,2-4.9c0,0,0.1,0,0.2,0c1,0,3,1.2,4.6,2.1
			c2.4,1.4,4.8,2.8,7.2,2.8c0.4,0,0.8,0,1.1-0.1c2.7-0.5,4.7-3.1,6.5-5.6c1-1.3,2.9-3.8,3.8-3.8c0.9,0,2.8,2.5,3.8,3.8
			c1.9,2.5,3.8,5,6.5,5.6c0.4,0.1,0.7,0.1,1.1,0.1l0,0c2.4,0,4.9-1.4,7.2-2.8c1.6-0.9,3.6-2.1,4.6-2.1c0.1,0,0.1,0,0.2,0
			c0.8,0.3,1.5,3.3,2,4.9c0.8,3,1.6,6.2,3.9,7.7c1.1,0.7,2.5,1.1,4.4,1.1c1.4,0,2.9-0.2,4.3-0.4c1.3-0.2,2.6-0.4,3.7-0.4
			c1.3,0,1.6,0.3,1.6,0.3c0.6,0.6,0.1,3.7-0.1,5.3c-0.4,3.1-0.9,6.4,0.7,8.7c1.6,2.3,4.7,3.1,7.7,3.9c1.6,0.4,4.6,1.2,4.9,2
			c0.3,0.7-1.3,3.4-2.1,4.8c-1.6,2.7-3.3,5.6-2.7,8.4c0.5,2.7,3.1,4.7,5.6,6.5c1.3,1,3.8,2.9,3.8,3.8s-2.5,2.8-3.8,3.8
			c-2.5,1.9-5,3.8-5.6,6.5c-0.6,2.8,1.1,5.6,2.7,8.4c0.8,1.3,2.4,4.1,2.1,4.8c-0.3,0.8-3.3,1.5-4.9,2c-3,0.8-6.2,1.6-7.7,3.9
			c-1.6,2.3-1.1,5.6-0.7,8.7c0.2,1.5,0.6,4.7,0.1,5.3c0,0-0.3,0.3-1.6,0.3c-0.9,0-2.1-0.1-3.1-0.3l-0.6-0.1
			c-1.4-0.2-2.9-0.4-4.3-0.4c-1.8,0-3.2,0.4-4.4,1.1c-2.3,1.6-3.1,4.7-3.9,7.7c-0.4,1.6-1.2,4.6-2,4.9c0,0-0.1,0-0.2,0
			c-1,0-3-1.2-4.6-2.1c-2.4-1.4-4.8-2.8-7.2-2.8c-0.4,0-0.8,0-1.1,0.1c-2.7,0.5-4.7,3.1-6.5,5.6c-1,1.3-2.9,3.8-3.8,3.8
			c0,0-0.2,0-0.5-0.3l0,0c-1-0.6-2.1-2.1-3.2-3.6c-1.9-2.5-3.8-5-6.5-5.6c-0.4-0.1-0.7-0.1-1.1-0.1c-2.4,0-4.9,1.4-7.2,2.8
			c-1.6,0.9-3.6,2.1-4.6,2.1c-0.1,0-0.1,0-0.2,0c-0.8-0.3-1.5-3.3-2-4.9c-0.8-3-1.6-6.2-3.9-7.7c-1.1-0.7-2.5-1.1-4.4-1.1
			c-1.4,0-2.9,0.2-4.3,0.4l-0.6,0.1c-1,0.1-2.1,0.3-3.1,0.3c-1.3,0-1.6-0.3-1.6-0.3C-56.3,407-55.9,403.9-55.7,402.3z M-36.5,486.2
			l-11.9-17.5c-0.5-0.7-1.2-1.1-2.1-1.1c-0.2,0-0.3,0-0.5,0.1l-21.5,4.4l23.6-59.8l0,0c0.4-0.1,0.8-0.1,1.3-0.1c0.1,0,0.2,0,0.3,0
			c0.4,0,0.8-0.1,1.1-0.1c0,0,0,0,0.1,0c1.1,0,1.5,0.2,1.6,0.3c0.7,0.5,1.4,3.1,1.9,4.8c0.9,3.5,1.8,7,4.9,8.3
			c0.6,0.3,1.3,0.4,2.1,0.4l0,0l0,0c1.8,0,3.6-0.8,5.4-1.8c0.6-0.3,1.2-0.7,1.8-1c1.6-0.9,3.6-2.1,4.7-2.1c0.1,0,0.1,0,0.1,0
			c0.8,0.2,2.5,2.3,3.5,3.7c0.2,0.3,0.5,0.6,0.7,1c0.1,0.1,0.1,0.2,0.2,0.2c0.3,0.3,0.5,0.6,0.8,1c0.1,0.1,0.1,0.1,0.2,0.2
			c0.3,0.3,0.5,0.6,0.8,0.9l0.1,0.1c0.3,0.3,0.6,0.5,0.8,0.8l0.1,0.1l1.3,3.3L-36.5,486.2z M25.9,467.7c-1-0.2-2,0.2-2.6,1
			l-11.8,17.5l-21.7-54.9l-0.4-1.1h0.1c0.2-0.1,0.5-0.2,0.7-0.3c0,0,0.1,0,0.1-0.1c0.2-0.1,0.5-0.3,0.7-0.5l0.1-0.1
			c0.5-0.4,0.9-0.8,1.4-1.2l0.1-0.1c0.2-0.2,0.4-0.4,0.6-0.7l0.1-0.1c0.2-0.2,0.4-0.4,0.5-0.6l0.1-0.1c0.2-0.2,0.4-0.5,0.6-0.7
			c0.1-0.1,0.1-0.1,0.2-0.2c0.2-0.2,0.4-0.5,0.5-0.7c1.1-1.4,2.7-3.5,3.5-3.7h0.1c1.1,0,3.1,1.2,4.7,2.1c2,1.2,4.1,2.4,6.2,2.7
			c0.3,0,0.6,0.1,0.9,0.1c0.7,0,1.4-0.1,2.1-0.4c3-1.3,4-4.8,4.9-8.3c0.5-1.7,1.1-4.3,1.9-4.8c0.1-0.1,0.5-0.3,1.6-0.3
			c0.4,0,0.8,0,1.2,0.1c0.1,0,0.2,0,0.3,0c0.4,0,0.8,0.1,1.3,0.1l0,0l23.6,59.7L25.9,467.7z"/>
		<path d="M-12.5,403.3c21.5,0,39-17.5,39-39s-17.5-39-39-39s-39,17.5-39,39S-34,403.3-12.5,403.3z M-12.5,330.4
			c18.7,0,34,15.2,34,34c0,18.7-15.2,34-34,34c-18.7,0-34-15.2-34-34S-31.2,330.4-12.5,330.4z"/>
	</g>
</symbol>
<symbol viewBox="-111.4 295.9 197.7 200.2" id="icon-trophy_10">
	<title>trophy_10</title>
	<g>
		<g>
			<path d="M2.8,386.2c0.3-0.2,0.5-0.6,0.7-0.9c0.5-1.3,28.6-75,29.8-78.1c0.3-0.8,0.2-1.6-0.3-2.3
				c-0.5-0.7-1.2-1.1-2.1-1.1h-28c-1,0-2,0.7-2.3,1.6c0,0-6.3,17.1-13,35.3c-6.7-18.1-13-35.3-13-35.3c-0.4-1-1.3-1.6-2.3-1.6h-13.7
				h-14.4c-0.8,0-1.6,0.4-2.1,1.1s-0.6,1.5-0.3,2.3c1.2,3.1,29.2,76.6,29.8,77.9c0.2,0.4,0.5,0.8,0.8,1.1c-21.4,6.5-37,26.4-37,49.9
				c0,28.7,23.4,52.1,52.1,52.1s52.1-23.4,52.1-52.1C39.6,412.6,24.1,392.7,2.8,386.2z M-22.9,384.5L-22.9,384.5L-22.9,384.5
				c0.2-0.2,0.4-0.3,0.6-0.5c0.3-0.2,0.5-0.4,0.8-0.6l0,0l0,0l0.3-0.2c0.4-0.2,0.8-0.5,1.2-0.7s0.9-0.4,1.3-0.6l0,0l0,0l0,0l0.4-0.1
				c0.3-0.1,0.7-0.2,1-0.3c0.8-0.2,1.5-0.4,2.3-0.5h0.1c0.9-0.1,1.8-0.2,2.6-0.1h0.1c0.4,0,0.8,0,1.2,0.1c0.1,0,0.2,0,0.2,0
				c3.6,0.4,6.8,1.8,9,4c-3.5-0.8-7.2-1.2-10.9-1.2c-3.8,0-7.4,0.4-11,1.2C-23.3,384.9-23.1,384.7-22.9,384.5z M0.1,379.9
				c-2.1-1.5-4.5-2.7-7.2-3.3l26-67.9h8.3C18.5,331.7,4.5,368.6,0.1,379.9z M4.6,308.7h9l-25.7,67.2c-1,0-2.1,0-3.3,0.2h-0.1
				c-0.9,0.1-1.9,0.3-2.9,0.6l-0.3,0.1l0,0c-0.3,0.1-0.7,0.2-1,0.3l0,0h-0.1c-0.1,0-0.3,0.1-0.4,0.1s-0.2,0.1-0.4,0.1
				c0-0.1,0.1-0.2,0.1-0.3v-0.1c0.3-0.7,0.5-1.5,0.9-2.3c0.1-0.1,0.1-0.3,0.2-0.4c0.3-0.9,0.7-1.9,1.1-2.9c0.1-0.2,0.1-0.4,0.2-0.6
				c0.2-0.4,0.3-0.8,0.5-1.3v-0.1c0.2-0.6,0.4-1.2,0.7-1.8c0.5-1.4,1.1-2.9,1.6-4.4c1.7-4.5,3.5-9.5,5.3-14.5
				C-3.9,331.8,2.6,314.1,4.6,308.7z M-15.1,347.9c-1.2,3.3-2.4,6.5-3.5,9.6c-0.2,0.7-0.5,1.3-0.7,2l-18.5-50.8h8.4
				C-27.6,314-21.3,331.2-15.1,347.9z M-52.2,308.7h9l21.2,58c-1.3,3.5-2.3,6.3-3.2,8.6c-0.1,0.3-0.2,0.6-0.3,0.9
				c0,0.1,0,0.1-0.1,0.2c-0.1,0.3-0.2,0.6-0.3,0.9l0,0C-31.1,364.1-44,330.3-52.2,308.7z M-12.5,483.1c-26,0-47.1-21.1-47.1-47.1
				s21.1-47.1,47.1-47.1S34.6,410,34.6,436C34.6,461.9,13.5,483.1-12.5,483.1z"/>
			<path d="M-12.5,395.4c-22.4,0-40.5,18.2-40.5,40.5c0,22.4,18.2,40.5,40.5,40.5c22.4,0,40.5-18.2,40.5-40.5
				S9.9,395.4-12.5,395.4z M-12.5,471.5c-19.6,0-35.5-15.9-35.5-35.5s15.9-35.5,35.5-35.5S23,416.4,23,436S7.1,471.5-12.5,471.5z"/>
			<path d="M-1.8,449.7H-7h-2.5v-35.6h-13c-1.4,0-2.6,0.7-2.6,2.6s1.3,2.6,2.6,2.6h7.7v30.4h-7.7
				c-1.4,0-2.6,0.7-2.6,2.6s1.3,2.6,2.6,2.6h13h1.9h5.8c1.4,0,2.6-0.7,2.6-2.6S-0.4,449.7-1.8,449.7z"/>
		</g>
	</g>
</symbol>
<symbol viewBox="-111.4 295.9 197.7 200.2" id="icon-trophy_11">
	<title>trophy_11</title>
	<g>
		<path d="M65.9,306.1c-3.8-3.9-8.5-5.7-13.4-5.3c-4.8,0.4-9.4,3-12.9,6.9c-0.4-0.3-1-0.5-1.5-0.5H-63.4
			c-0.5,0-1,0.2-1.4,0.4c-3.5-3.9-8.1-6.4-12.8-6.8c-5-0.5-9.6,1.4-13.4,5.2c-11.5,11.5,6.1,33.5,21.6,52.9
			c5.5,6.9,12.7,15.9,14.6,20.5c0.2,0.8,0.3,1.6,0.4,2.4c-0.4,1.4-1.3,3.1-3,3.3c-1.5,0.2-3.2-0.7-4-2.1c-0.5-0.8-1-2.2,0.1-3.8
			c0.8-1.2,0.4-2.7-0.7-3.5c-1.2-0.8-2.7-0.4-3.5,0.7c-1.9,2.9-1.9,6.4-0.1,9.2c1.7,2.7,4.8,4.4,7.8,4.4c0.4,0,0.7,0,1.1-0.1
			c1.4-0.2,2.6-0.7,3.6-1.5c0.2,0.9,0.4,1.8,0.6,2.6c4,18,30.5,35.3,37,39.3c-0.7,5.3-4.4,23.5-20,26.9h-13c-1.4,0-2.5,1.1-2.5,2.5
			v29.1c0,1.4,1.1,2.5,2.5,2.5h73.1c1.4,0,2.5-1.1,2.5-2.5v-29.1c0-1.4-1.1-2.5-2.5-2.5H10c-15.6-3.4-19.3-21.6-20-26.9
			c6.5-4,33-21.3,37-39.3c0.2-0.8,0.4-1.8,0.6-2.8c1.1,0.9,2.4,1.5,3.8,1.7c0.4,0,0.7,0.1,1.1,0.1c3.1,0,6.1-1.7,7.8-4.4
			c1.8-2.9,1.8-6.3-0.1-9.2c-0.8-1.2-2.3-1.5-3.5-0.7s-1.5,2.3-0.7,3.5c1.1,1.6,0.6,3,0.1,3.8c-0.9,1.4-2.6,2.3-4,2.1
			c-1.7-0.2-2.6-2-3-3.3c-0.9-2.8,8.4-14.4,15.1-22.8C59.8,339.5,77.4,317.5,65.9,306.1z M-65.4,355.8c-12.8-16-30.3-38-22-46.3
			c2.8-2.8,5.9-4.1,9.4-3.8c4.1,0.4,8.4,3.1,11.1,7.2c2.7,4,2.6,8.2,1.2,10.6c-0.4,0.7-1.3,1.8-2.6,1.7c-2.2-0.2-4.4-2.6-4.4-3.9
			c0-0.7,1.4-1,2-1.1c1.4-0.2,2.3-1.5,2.1-2.8c-0.2-1.4-1.4-2.3-2.8-2.1c-4.8,0.7-6.4,3.6-6.3,6.2c0.1,4.2,4.5,8.4,9.1,8.7
			c2.1,0.1,4-0.6,5.6-2.1c1.7,11.1,4,25.7,6.2,38.5C-59.2,363.6-62.1,360-65.4,355.8z M22.1,486.4H-46v-24.1h11H9.7h12.4V486.4z
			 M-1.6,457.3h-22c5.8-4.5,9.1-10.8,11-16.4C-10.7,446.5-7.4,452.9-1.6,457.3z M-12.6,426.2c-6-3.7-31.2-20.2-34.8-36.1
			c-0.5-2.3-1.1-5.2-1.7-8.6c0-0.9-0.2-1.9-0.6-3c-3.9-21.3-9.2-56.1-10.7-66.3h95.7c-1.9,12.4-9.3,61.3-13,77.9
			C18.6,406-6.6,422.5-12.6,426.2z M31.6,367.1c2.2-13,4.5-27.8,6.3-39.1c1.6,1.6,3.6,2.4,5.8,2.3c4.5-0.3,8.9-4.5,9.1-8.7
			c0.1-2.6-1.5-5.5-6.3-6.2c-1.4-0.2-2.6,0.8-2.8,2.1c-0.2,1.4,0.8,2.6,2.1,2.8c0.6,0.1,2,0.4,2,1.1c0,1.4-2.2,3.8-4.4,3.9
			c-1.3,0.1-2.2-1.1-2.6-1.7c-1.4-2.4-1.5-6.5,1.2-10.6c2.7-4,7-6.8,11.1-7.2c3.5-0.3,6.6,1,9.4,3.8c8.3,8.3-9.2,30.2-22,46.2
			C36.9,360.2,34,363.9,31.6,367.1z"/>
		<path d="M7.3,346l-12.2-1.8l-5.5-11.1c-0.4-0.9-1.3-1.4-2.2-1.4s-1.8,0.5-2.2,1.4l-5.5,11.1l-12.2,1.8
			c-0.9,0.1-1.7,0.8-2,1.7s0,1.9,0.6,2.6l8.9,8.6l-2.1,12.2c-0.2,0.9,0.2,1.9,1,2.4c0.8,0.6,1.8,0.6,2.6,0.2l11-5.8l10.9,5.8
			c0.4,0.2,0.8,0.3,1.2,0.3c0.5,0,1-0.2,1.5-0.5c0.8-0.6,1.2-1.5,1-2.4L0,358.9l8.9-8.6c0.7-0.7,0.9-1.7,0.6-2.6S8.3,346.1,7.3,346z
			 M-4.6,356.2c-0.6,0.6-0.9,1.4-0.7,2.2l1.5,8.5l-7.6-4c-0.7-0.4-1.6-0.4-2.3,0l-7.6,4l1.5-8.5c0.1-0.8-0.1-1.6-0.7-2.2l-6.2-6
			l8.5-1.2c0.8-0.1,1.5-0.6,1.9-1.4l3.8-7.7l3.8,7.7c0.4,0.7,1.1,1.2,1.9,1.4l8.5,1.2L-4.6,356.2z"/>
		<path d="M-2.3,472.3h-21.3c-1.4,0-2.5,1.1-2.5,2.5s1.1,2.5,2.5,2.5h21.3c1.4,0,2.5-1.1,2.5-2.5S-0.9,472.3-2.3,472.3z
			"/>
	</g>
</symbol>
<symbol viewBox="-111.4 295.9 197.7 200.2" id="icon-trophy_12">
	<title>trophy_12</title>
	<g>
		<path d="M-1.3,395.2h-5.2h-2.4v-35.3h-12.8c-1.4,0-2.6,0.7-2.6,2.6s1.2,2.6,2.6,2.6h7.6v30.1h-7.6
			c-1.4,0-2.6,0.7-2.6,2.6s1.2,2.6,2.6,2.6h12.8H-7h5.7c1.4,0,2.6-0.7,2.6-2.6C1.3,395.9,0.1,395.2-1.3,395.2z"/>
		<path d="M80.8,440.3l-11-15.2l11-14.7c0.6-0.8,0.7-1.8,0.2-2.6c-0.4-0.8-1.3-1.4-2.2-1.4H47v-11.3
			c0-1.4-1.1-2.5-2.5-2.5c-0.9,0-1.8,0-2.7,0.1c0.9-3.9,1.3-7.9,1.3-11.9c0-30.7-24.9-55.6-55.6-55.6s-55.6,24.9-55.6,55.6
			c0,12.4,4.1,24.3,11.6,34h-47.4c-0.9,0-1.8,0.5-2.2,1.4c-0.4,0.8-0.4,1.8,0.2,2.6l11,15.2l-11,14.7c-0.6,0.8-0.7,1.8-0.2,2.6
			c0.4,0.8,1.3,1.4,2.2,1.4h33.3v11.6c0,1.4,1.1,2.5,2.5,2.5c19.3,0,38.6-9.3,57.3-18.4c9.4-4.6,19.1-9.2,28.7-12.6v6.1
			c0,0,0,0,0,0.1c0,0.2,0,0.4,0.1,0.6l0,0l0,0c0.1,0.2,0.1,0.4,0.2,0.5c0,0,0,0.1,0.1,0.1c0.1,0.2,0.2,0.3,0.3,0.4c0,0,0,0,0.1,0.1
			s0.3,0.2,0.4,0.3l0,0l0,0c0.2,0.1,0.3,0.2,0.5,0.2h0.1c0.2,0,0.4,0.1,0.6,0.1h58.3c0.9,0,1.8-0.5,2.2-1.4S81.3,441,80.8,440.3z
			 M22.9,437.4V434c0.3-0.1,0.6-0.2,0.8-0.3c0.4-0.1,0.8-0.2,1.1-0.3c0.6-0.2,1.2-0.3,1.8-0.5c0.4-0.1,0.7-0.2,1.1-0.3
			c0.7-0.2,1.3-0.3,2-0.5c0.3-0.1,0.6-0.1,0.9-0.2c0.9-0.2,1.8-0.4,2.7-0.5l-2.8,1.6L22.9,437.4z M-12.6,330
			c27.9,0,50.6,22.7,50.6,50.6c0,4.2-0.5,8.3-1.5,12.4c-0.6,0.1-1.1,0.1-1.7,0.2c-0.1,0-0.1,0-0.2,0c-1.1,0.2-2.2,0.3-3.2,0.6
			c-0.2,0-0.4,0.1-0.5,0.1c-0.8,0.2-1.6,0.3-2.4,0.5c0.2-0.6,0.4-1.2,0.6-1.9c0-0.2,0.1-0.3,0.1-0.5c0.2-0.5,0.3-1.1,0.4-1.6
			c0-0.2,0.1-0.4,0.1-0.6c0.1-0.6,0.2-1.2,0.4-1.8c0-0.1,0-0.2,0.1-0.3c0.1-0.7,0.2-1.4,0.3-2.1c0-0.2,0-0.4,0.1-0.6
			c0.1-0.5,0.1-1.1,0.1-1.6c0-0.2,0-0.4,0-0.6c0-0.7,0.1-1.4,0.1-2.2c0-23.8-19.4-43.2-43.2-43.2s-43.2,19.4-43.2,43.2
			c0,1,0,1.9,0.1,2.9c0,0.1,0,0.2,0,0.4c0.1,0.9,0.2,1.8,0.3,2.7c0,0.2,0,0.3,0.1,0.5c0.1,0.9,0.3,1.7,0.5,2.6
			c0,0.1,0.1,0.3,0.1,0.4c0.2,0.9,0.4,1.8,0.7,2.6c0,0.1,0,0.2,0.1,0.2c0.3,0.9,0.5,1.7,0.8,2.6c0,0.1,0,0.1,0.1,0.2
			c0.3,0.8,0.7,1.7,1,2.5c0.1,0.1,0.1,0.3,0.2,0.4c0.4,0.8,0.7,1.6,1.2,2.3c0.1,0.1,0.1,0.3,0.2,0.4c0.4,0.8,0.9,1.5,1.3,2.3
			c0.1,0.1,0.1,0.2,0.2,0.3c0.5,0.8,1,1.5,1.5,2.3c0,0,0,0,0,0.1c0.5,0.7,1.1,1.4,1.7,2.1c0.1,0.1,0.1,0.2,0.2,0.2
			c0.6,0.7,1.2,1.3,1.8,2c0.1,0.1,0.2,0.2,0.3,0.3c0.6,0.6,1.2,1.2,1.9,1.8c0.1,0.1,0.2,0.2,0.3,0.3c0.7,0.6,1.3,1.2,2,1.7
			c0.1,0.1,0.2,0.1,0.2,0.2c0.7,0.6,1.4,1.1,2.2,1.6l0.1,0.1c0.8,0.5,1.5,1,2.3,1.4c0.1,0.1,0.2,0.1,0.4,0.2
			c0.8,0.4,1.5,0.8,2.3,1.2c0.1,0,0.1,0.1,0.2,0.1c-0.1,0-0.2,0.1-0.3,0.1c-0.5,0.2-1,0.4-1.5,0.6c-0.2,0.1-0.5,0.2-0.7,0.3
			c-0.6,0.3-1.3,0.5-1.9,0.8c0,0-0.1,0-0.1,0.1c-0.7,0.3-1.4,0.5-2,0.8c-0.2,0.1-0.3,0.1-0.5,0.2c-0.5,0.2-0.9,0.4-1.4,0.5
			c-0.1,0-0.2,0.1-0.2,0.1c-0.3-0.2-0.7-0.4-1-0.7c-0.2-0.2-0.5-0.3-0.7-0.5c-0.7-0.5-1.4-1-2.1-1.6c0,0,0,0-0.1,0
			c-1.1-0.9-2.2-1.8-3.2-2.8c-0.3-0.3-0.7-0.7-1-1s-0.7-0.7-1-1c-8.9-9.4-13.9-21.8-13.9-34.8C-63.2,352.7-40.5,330-12.6,330z
			 M18.2,397.3c-0.2,0.1-0.4,0.1-0.6,0.2c-1.3,0.4-2.6,0.9-3.9,1.4c-0.2,0.1-0.4,0.1-0.6,0.2c-1.3,0.5-2.6,1-3.9,1.5
			c-0.2,0.1-0.4,0.2-0.6,0.2c-1.3,0.5-2.6,1.1-3.9,1.7c-0.2,0.1-0.3,0.2-0.5,0.2c-1.3,0.6-2.6,1.2-3.9,1.8c-0.2,0.1-0.3,0.1-0.5,0.2
			c-1.3,0.6-2.6,1.2-4,1.8c-0.1,0.1-0.3,0.1-0.4,0.2c-1.3,0.6-2.7,1.3-4,1.9c-0.1,0.1-0.2,0.1-0.4,0.2c-1.4,0.6-2.7,1.3-4,1.9
			c-1.8,0.9-3.6,1.7-5.4,2.6c-0.3,0.1-0.6,0.3-0.9,0.4c-1.8,0.9-3.6,1.7-5.4,2.5c-0.2,0.1-0.4,0.2-0.6,0.3c-0.1,0-0.2-0.1-0.3-0.1
			c-0.2-0.1-0.5-0.2-0.7-0.3s-0.5-0.2-0.7-0.3s-0.5-0.2-0.7-0.3s-0.5-0.2-0.7-0.3s-0.5-0.2-0.7-0.3s-0.5-0.2-0.7-0.3
			s-0.5-0.2-0.7-0.3s-0.4-0.2-0.7-0.4c-0.2-0.1-0.4-0.2-0.7-0.4c-0.2-0.1-0.4-0.2-0.6-0.4c-0.2-0.1-0.4-0.3-0.7-0.4
			c-0.2-0.1-0.4-0.3-0.6-0.4s-0.4-0.3-0.6-0.4s-0.4-0.3-0.6-0.4s-0.4-0.3-0.6-0.5c-0.2-0.1-0.4-0.3-0.6-0.4
			c-0.2-0.2-0.4-0.3-0.6-0.5c-0.2-0.1-0.4-0.3-0.5-0.5c-0.2-0.2-0.4-0.3-0.6-0.5s-0.4-0.3-0.5-0.5c-0.2-0.2-0.4-0.3-0.6-0.5
			s-0.3-0.3-0.5-0.5c-0.2-0.2-0.4-0.4-0.5-0.5c-0.2-0.2-0.3-0.3-0.5-0.5s-0.4-0.4-0.5-0.6c-0.2-0.2-0.3-0.3-0.5-0.5
			s-0.3-0.4-0.5-0.6s-0.3-0.4-0.4-0.5c-0.2-0.2-0.3-0.4-0.5-0.6c-0.1-0.2-0.3-0.4-0.4-0.6c-0.2-0.2-0.3-0.4-0.5-0.6
			c-0.1-0.2-0.3-0.4-0.4-0.6c-0.1-0.2-0.3-0.4-0.4-0.6c-0.1-0.2-0.3-0.4-0.4-0.6c-0.1-0.2-0.3-0.4-0.4-0.6c-0.1-0.2-0.2-0.4-0.4-0.6
			c-0.1-0.2-0.3-0.4-0.4-0.7c-0.1-0.2-0.2-0.4-0.3-0.6s-0.2-0.4-0.4-0.7c-0.1-0.2-0.2-0.4-0.3-0.6s-0.2-0.5-0.3-0.7
			s-0.2-0.4-0.3-0.7c-0.1-0.2-0.2-0.5-0.3-0.7s-0.2-0.5-0.3-0.7s-0.2-0.5-0.3-0.7s-0.2-0.5-0.2-0.7c-0.1-0.2-0.2-0.5-0.2-0.7
			c-0.1-0.2-0.1-0.5-0.2-0.7c-0.1-0.2-0.1-0.5-0.2-0.7c-0.1-0.2-0.1-0.5-0.2-0.7c-0.1-0.2-0.1-0.5-0.2-0.7c-0.1-0.3-0.1-0.5-0.2-0.8
			c-0.1-0.2-0.1-0.5-0.2-0.7c-0.1-0.3-0.1-0.5-0.1-0.8c0-0.2-0.1-0.5-0.1-0.7c0-0.3-0.1-0.6-0.1-0.8c0-0.2-0.1-0.4-0.1-0.7
			c0-0.3-0.1-0.6-0.1-0.9c0-0.2,0-0.4-0.1-0.6c0-0.3,0-0.7-0.1-1c0-0.2,0-0.3,0-0.5c0-0.5,0-1,0-1.5c0-21.1,17.1-38.2,38.2-38.2
			s38.2,17.1,38.2,38.2c0,0.7,0,1.4-0.1,2.1c0,0.2,0,0.5-0.1,0.7c0,0.5-0.1,0.9-0.1,1.4c0,0.3-0.1,0.5-0.1,0.8
			c-0.1,0.4-0.1,0.8-0.2,1.2c0,0.3-0.1,0.6-0.2,0.9c-0.1,0.4-0.1,0.8-0.2,1.2c-0.1,0.3-0.1,0.6-0.2,0.9c-0.1,0.4-0.2,0.7-0.3,1.1
			c-0.1,0.3-0.2,0.6-0.3,0.9c-0.1,0.4-0.2,0.7-0.3,1.1c-0.1,0.3-0.2,0.6-0.3,0.9c-0.1,0.4-0.3,0.7-0.4,1.1c-0.1,0.3-0.2,0.6-0.4,0.9
			c-0.1,0.2-0.1,0.3-0.2,0.5c-0.1,0-0.2,0.1-0.3,0.1C20.8,396.5,19.5,396.9,18.2,397.3z M-49.9,426c-0.6,0.1-1.1,0.3-1.6,0.4
			c-0.4,0.1-0.7,0.2-1.1,0.3c-0.6,0.1-1.1,0.2-1.6,0.4c-0.3,0.1-0.7,0.1-1,0.2c-0.6,0.1-1.2,0.2-1.8,0.3c-0.3,0-0.5,0.1-0.8,0.1
			c-0.1,0-0.1,0-0.2,0l0.6-0.4l8.1-5.1c0.1,0.1,0.1,0.1,0.2,0.2s0.2,0.2,0.3,0.3c0.2,0.2,0.4,0.4,0.6,0.5v2.2
			c-0.2,0.1-0.4,0.1-0.7,0.2C-49.2,425.8-49.6,425.9-49.9,426z M-99,447.5l9.1-12.2c0.7-0.9,0.7-2.1,0-3l-9.2-12.8h44.7l-15.1,9.5
			l0,0l-0.1,0.1c-0.1,0.1-0.2,0.1-0.2,0.2c0,0-0.1,0-0.1,0.1c0,0,0,0-0.1,0.1s-0.1,0.1-0.2,0.2l-0.1,0.1c0,0,0,0.1-0.1,0.1
			c0,0,0,0,0,0.1v0.1c0,0,0,0.1-0.1,0.1c0,0.1-0.1,0.2-0.1,0.2v0.1v0.1l0,0c0,0.1,0,0.3,0,0.4l0,0v16.4L-99,447.5L-99,447.5z
			 M-12.9,443.7c-17.3,8.4-35.3,17-52.7,17.8V450v-16.4h0.1c0.2,0,0.4,0,0.6,0c0.6,0,1.3-0.1,2-0.1c0.3,0,0.6-0.1,1-0.1
			c0.6-0.1,1.1-0.1,1.7-0.2c0.4,0,0.7-0.1,1.1-0.1c0.5-0.1,1.1-0.2,1.6-0.2c0.4-0.1,0.7-0.1,1.1-0.2c0.5-0.1,1.1-0.2,1.7-0.3
			c0.4-0.1,0.8-0.1,1.1-0.2c0.6-0.1,1.2-0.3,1.7-0.4c0.4-0.1,0.7-0.2,1.1-0.3c0.6-0.2,1.3-0.3,2-0.5c0.3-0.1,0.6-0.2,0.9-0.2
			c1-0.3,2-0.6,3-0.9c1.8-0.5,3.5-1.1,5.2-1.7l0,0c4.7-1.7,9.7-3.7,15.7-6.5c4.4-2,8.9-4.2,13.3-6.3c7.3-3.5,14.8-7.2,22.3-10.2
			c4.5-1.8,9-3.4,13.4-4.7c1.2-0.3,2.4-0.7,3.6-0.9c3.5-0.9,6.9-1.4,10.2-1.8l0,0c1.1-0.1,2.2-0.2,3.2-0.2v11.2v16.6
			c-0.1,0-0.1,0-0.2,0c-0.3,0-0.6,0-0.9,0.1c-0.6,0-1.2,0.1-1.9,0.1c-0.4,0-0.7,0.1-1.1,0.1c-0.6,0.1-1.2,0.1-1.7,0.2
			c-0.4,0-0.8,0.1-1.2,0.2c-0.6,0.1-1.1,0.2-1.7,0.3c-0.4,0.1-0.8,0.1-1.2,0.2c-0.6,0.1-1.2,0.2-1.8,0.3c-0.4,0.1-0.8,0.2-1.2,0.3
			c-0.6,0.1-1.2,0.3-1.9,0.4c-0.4,0.1-0.8,0.2-1.2,0.3c-0.7,0.2-1.4,0.4-2.1,0.6c-0.3,0.1-0.7,0.2-1,0.3c-1,0.3-2.1,0.6-3.2,1
			C8.8,433.3-2.3,438.6-12.9,443.7z M29.8,439.2l15.9-9.2c0,0,0,0,0.1-0.1c0.1,0,0.1-0.1,0.2-0.1c0.1-0.1,0.1-0.1,0.2-0.2
			c0,0,0.1,0,0.1-0.1l0,0l0,0c0.1-0.1,0.1-0.1,0.2-0.2l0.1-0.1c0,0,0-0.1,0.1-0.1V429l0.1-0.1v-0.1c0-0.1,0.1-0.2,0.1-0.2v-0.1v-0.1
			v-0.1c0-0.1,0-0.2,0-0.3c0,0,0,0,0-0.1v-16.6h26.9l-9.1,12.2c-0.7,0.9-0.7,2.1,0,3l9.2,12.8L29.8,439.2L29.8,439.2z"/>
	</g>
</symbol>

	</defs>
</svg>
